<?xml version="1.0" encoding="UTF-8"?>
<svg version="1.1" xmlns="http://www.w3.org/2000/svg" width="499" height="499">
<path d="M0 0 C2.50502295 0.0054646 5.0098743 -0.00003962 7.51489258 -0.00634766 C9.1184086 -0.00568846 10.72192451 -0.0044106 12.32543945 -0.00244141 C13.44091911 -0.00547775 13.44091911 -0.00547775 14.57893372 -0.00857544 C17.70750404 0.00573982 20.15846896 0.13330801 23.1496582 1.13037109 C23.1496582 1.79037109 23.1496582 2.45037109 23.1496582 3.13037109 C23.8096582 3.13037109 24.4696582 3.13037109 25.1496582 3.13037109 C25.20388767 4.567452 25.24255544 6.00512572 25.2746582 7.44287109 C25.29786133 8.24337891 25.32106445 9.04388672 25.3449707 9.86865234 C25.1496582 12.13037109 25.1496582 12.13037109 23.1496582 15.13037109 C20.26375168 16.09233993 18.22304195 16.30772129 15.2121582 16.41162109 C14.23375977 16.44900391 13.25536133 16.48638672 12.24731445 16.52490234 C11.22508789 16.55970703 10.20286133 16.59451172 9.1496582 16.63037109 C-14.57924422 17.46350551 -32.79041975 22.39971707 -49.8503418 40.13037109 C-58.57519937 50.47094303 -63.11621805 61.46906256 -62.3972168 74.99755859 C-61.5586722 83.3483858 -57.2616695 90.78710251 -51.0612793 96.36474609 C-36.75353807 107.79071612 -21.37095548 115.557248 -4.7878418 123.19287109 C42.27904773 144.87349134 42.27904773 144.87349134 60.1496582 158.13037109 C61.13361572 158.84676758 61.13361572 158.84676758 62.13745117 159.57763672 C69.87815311 165.22878884 69.87815311 165.22878884 73.1496582 168.13037109 C73.1496582 168.79037109 73.1496582 169.45037109 73.1496582 170.13037109 C73.8096582 170.13037109 74.4696582 170.13037109 75.1496582 170.13037109 C75.1496582 170.79037109 75.1496582 171.45037109 75.1496582 172.13037109 C75.8096582 172.13037109 76.4696582 172.13037109 77.1496582 172.13037109 C77.1496582 172.79037109 77.1496582 173.45037109 77.1496582 174.13037109 C77.8096582 174.13037109 78.4696582 174.13037109 79.1496582 174.13037109 C80.96805908 176.19605037 82.66244711 178.26481925 84.3371582 180.44287109 C84.82821045 181.07499512 85.3192627 181.70711914 85.82519531 182.35839844 C90.86069385 188.9209819 95.48293848 195.70313865 99.1496582 203.13037109 C99.17439688 199.19768243 99.19253655 195.26502396 99.20458984 191.33227539 C99.21208549 189.33722341 99.22479166 187.34219324 99.23754883 185.34716797 C99.24077148 184.09355469 99.24399414 182.83994141 99.24731445 181.54833984 C99.25255127 180.39100342 99.25778809 179.23366699 99.26318359 178.04125977 C99.28265281 175.06432699 99.28265281 175.06432699 98.1496582 172.13037109 C98.03330381 169.58688674 97.97164648 167.06971527 97.95678711 164.52539062 C97.94452087 163.36635223 97.94452087 163.36635223 97.93200684 162.18389893 C97.9071949 159.62700166 97.89064943 157.07015967 97.8762207 154.51318359 C97.87089703 153.63957058 97.86557335 152.76595757 97.86008835 151.86587143 C97.8333776 147.24359769 97.81399434 142.6213508 97.79956055 137.99902344 C97.7862088 134.17326006 97.758331 130.34802848 97.7175293 126.52246094 C97.66825489 121.90239751 97.64344633 117.28281728 97.63633347 112.66250229 C97.62961577 110.90261434 97.61438014 109.14273739 97.59044266 107.38299942 C97.5588381 104.91947355 97.55874621 102.45781582 97.56616211 99.99414062 C97.54975677 99.26877106 97.53335144 98.54340149 97.51644897 97.79605103 C97.56405538 93.92921173 98.06425842 92.24068079 100.45956421 89.146698 C103.1496582 87.13037109 103.1496582 87.13037109 106.7746582 87.00537109 C110.1496582 88.13037109 110.1496582 88.13037109 111.83357239 90.25212097 C113.45252917 93.79274309 113.54796047 96.41649038 113.58203125 100.30737305 C113.59731873 101.36185387 113.59731873 101.36185387 113.61291504 102.43763733 C113.64297187 104.74805751 113.6522994 107.05806259 113.66137695 109.36865234 C113.67822913 110.97577789 113.6963801 112.5828903 113.71577454 114.18998718 C113.76322242 118.41000259 113.79306533 122.62996472 113.81921387 126.85015869 C113.8490458 131.16046671 113.89556706 135.47059127 113.94067383 139.78076172 C114.02664761 148.23054127 114.09401906 156.68033761 114.1496582 165.13037109 C114.87991211 164.20095703 115.61016602 163.27154297 116.36254883 162.31396484 C138.8996582 133.63037109 138.8996582 133.63037109 140.27490234 131.88012695 C141.19084148 130.71434187 142.10669446 129.54848908 143.02246094 128.38256836 C145.32455423 125.45185012 147.62816898 122.52235198 149.93481445 119.59521484 C154.79077357 113.42978361 159.61403891 107.24192732 164.38916016 101.01367188 C167.36625212 97.13568701 170.37459889 93.28352894 173.3996582 89.44287109 C181.84121682 78.72398438 190.22394704 67.95873019 198.5246582 57.13037109 C201.29939873 53.51466383 204.09981865 49.92705378 206.9621582 46.38037109 C209.93206646 42.6948223 212.8189427 38.95422356 215.68115234 35.18505859 C220.73350472 28.53499196 225.82228168 21.91394172 231.0246582 15.38037109 C231.53536865 14.72536621 232.0460791 14.07036133 232.57226562 13.39550781 C238.81415619 5.63182147 245.59038962 1.53520348 255.60171509 0.33996582 C261.16107519 -0.11734916 266.74286902 -0.05451802 272.31762695 -0.07275391 C272.98806849 -0.07558128 273.65851002 -0.07840866 274.34926796 -0.08132172 C277.88877367 -0.096219 281.42823953 -0.1055114 284.96777344 -0.10986328 C288.61271403 -0.11537247 292.25728572 -0.1394782 295.9021101 -0.16783524 C298.71858293 -0.18647603 301.53496644 -0.19166769 304.35149574 -0.19319916 C306.34620619 -0.19767775 308.34086875 -0.21630092 310.335495 -0.23516846 C311.55058243 -0.23216736 312.76566986 -0.22916626 314.01757812 -0.22607422 C315.08376877 -0.22971985 316.14995941 -0.23336548 317.24845886 -0.23712158 C320.59462449 0.18673463 322.46814982 1.10901137 325.1496582 3.13037109 C326.69862985 7.04835819 326.2475075 8.86795706 324.7746582 12.81787109 C322.27730085 17.32675177 319.01222458 21.15770641 315.70043945 25.08740234 C312.98902848 28.32199522 310.37280387 31.61735534 307.7746582 34.94287109 C307.31373779 35.53148926 306.85281738 36.12010742 306.37792969 36.7265625 C305.43721882 37.92810165 304.49687202 39.12992592 303.55688477 40.33203125 C301.25909926 43.26844486 298.95398321 46.19908879 296.6496582 49.13037109 C296.20259521 49.69965332 295.75553223 50.26893555 295.29492188 50.85546875 C292.89451268 53.91210182 290.49096459 56.96620547 288.08325195 60.01708984 C287.58180664 60.65324219 287.08036133 61.28939453 286.5637207 61.94482422 C285.6023894 63.16429078 284.64019385 64.38307671 283.67700195 65.60107422 C281.73716456 68.06339757 279.8896776 70.52034201 278.1496582 73.13037109 C277.4896582 73.13037109 276.8296582 73.13037109 276.1496582 73.13037109 C275.77647461 73.95408203 275.77647461 73.95408203 275.39575195 74.79443359 C267.96015114 88.73327148 255.58833523 101.48660722 245.56469727 113.62548828 C243.17686216 116.53701058 240.91413117 119.41740287 238.89575195 122.59912109 C238.31954102 123.43443359 237.74333008 124.26974609 237.1496582 125.13037109 C236.4896582 125.13037109 235.8296582 125.13037109 235.1496582 125.13037109 C234.92407227 125.82775391 234.69848633 126.52513672 234.46606445 127.24365234 C232.86245228 130.76017874 230.60596417 133.43567304 228.0871582 136.31787109 C224.78191216 139.98910052 224.78191216 139.98910052 222.1496582 144.13037109 C221.4896582 144.13037109 220.8296582 144.13037109 220.1496582 144.13037109 C219.8815332 144.87287109 219.6134082 145.61537109 219.3371582 146.38037109 C218.1968907 149.02099058 217.05585514 150.98589953 215.1496582 153.13037109 C214.4896582 153.13037109 213.8296582 153.13037109 213.1496582 153.13037109 C212.92536133 153.65115234 212.70106445 154.17193359 212.4699707 154.70849609 C210.65541711 158.03696718 208.36051645 160.90329686 206.0246582 163.88037109 C205.55672852 164.48236328 205.08879883 165.08435547 204.60668945 165.70458984 C203.45740813 167.18223725 202.30394585 168.65663114 201.1496582 170.13037109 C204.97693609 176.35406005 208.95244968 182.27577643 213.50512695 187.98974609 C220.1496582 196.63868463 220.1496582 196.63868463 220.1496582 200.13037109 C220.8096582 200.13037109 221.4696582 200.13037109 222.1496582 200.13037109 C223.5246582 202.04443359 223.5246582 202.04443359 225.1496582 204.75537109 C227.93331408 209.26224252 230.85427024 213.59623177 233.9621582 217.88037109 C237.39486679 222.63080314 240.72919749 227.42924261 243.9621582 232.31787109 C249.92066834 241.32671197 256.0335439 250.22804785 262.1496582 259.13037109 C262.63611816 259.83871094 263.12257813 260.54705078 263.6237793 261.27685547 C266.34660162 265.241089 269.07182438 269.20366522 271.7980957 273.16552734 C273.1869045 275.18451817 274.57467387 277.20421987 275.9621582 279.22412109 C276.4269458 279.90063721 276.8917334 280.57715332 277.37060547 281.27416992 C278.30612802 282.63589123 279.24151229 283.99770755 280.17675781 285.35961914 C282.88086949 289.29457447 285.60435738 293.21525796 288.3371582 297.13037109 C293.38356071 304.40953442 298.29177681 311.78115223 303.1796875 319.16748047 C306.20012612 323.72982133 309.22581254 328.27729048 312.40356445 332.73193359 C312.87479736 333.40240723 313.34603027 334.07288086 313.83154297 334.76367188 C314.67480583 335.95789077 315.53218767 337.14234123 316.40722656 338.31347656 C319.52991535 342.77952873 319.67141592 345.86931408 319.1496582 351.13037109 C316.66429547 354.85841519 315.44153109 355.08195821 311.1496582 356.13037109 C308.29883185 356.32811323 305.54949657 356.43455776 302.70043945 356.43115234 C301.88834518 356.43543747 301.07625092 356.4397226 300.23954773 356.44413757 C298.5190829 356.44986563 296.79859387 356.45039239 295.078125 356.44604492 C292.51492713 356.44293512 289.95294367 356.46618513 287.38989258 356.49169922 C268.33337125 356.56553989 248.06822013 355.32514961 233.1496582 342.13037109 C232.49481445 341.55673828 231.8399707 340.98310547 231.1652832 340.39208984 C225.94467991 335.50536234 222.21076785 329.99619175 218.36889648 324 C215.94847918 320.28843497 213.41281053 316.65445942 210.8996582 313.00537109 C205.04194301 304.47069713 199.26823297 295.88213479 193.56030273 287.24658203 C192.54052871 285.7167445 191.50870035 284.19491909 190.46948242 282.67822266 C189.91921387 281.87094727 189.36894531 281.06367188 188.80200195 280.23193359 C188.29531982 279.49539551 187.7886377 278.75885742 187.26660156 278 C186.1496582 276.13037109 186.1496582 276.13037109 186.1496582 274.13037109 C185.4896582 274.13037109 184.8296582 274.13037109 184.1496582 274.13037109 C182.4230957 271.79443359 182.4230957 271.79443359 180.5246582 268.75537109 C179.57719727 267.25876953 179.57719727 267.25876953 178.6105957 265.73193359 C177.1496582 263.13037109 177.1496582 263.13037109 177.1496582 261.13037109 C176.4896582 261.13037109 175.8296582 261.13037109 175.1496582 261.13037109 C173.58166272 258.99470602 172.13669615 256.85968764 170.7121582 254.63037109 C169.82141528 253.26371315 168.92944226 251.89785632 168.03637695 250.53271484 C167.56893066 249.81583496 167.10148437 249.09895508 166.61987305 248.36035156 C164.14150496 244.60123265 161.58336537 240.89757425 159.0246582 237.19287109 C158.53940674 236.48904297 158.05415527 235.78521484 157.55419922 235.06005859 C156.4203258 233.41615747 155.28514551 231.77315787 154.1496582 230.13037109 C152.56250291 232.00224508 150.9799247 233.8776949 149.3996582 235.75537109 C148.9562207 236.27744141 148.5127832 236.79951172 148.0559082 237.33740234 C145.83666073 239.98091772 143.79548626 242.61130475 141.9465332 245.52880859 C141.05708008 246.81658203 141.05708008 246.81658203 140.1496582 248.13037109 C139.4896582 248.13037109 138.8296582 248.13037109 138.1496582 248.13037109 C137.91375977 248.83291016 137.67786133 249.53544922 137.43481445 250.25927734 C135.91018178 253.66537161 133.92858529 256.16215641 131.5871582 259.06787109 C120.37758359 273.36918104 112.96176113 288.37372169 106.0871582 305.14208984 C98.83442779 322.81852827 89.49803024 342.00487167 75.1496582 355.13037109 C74.4896582 355.13037109 73.8296582 355.13037109 73.1496582 355.13037109 C73.1496582 355.79037109 73.1496582 356.45037109 73.1496582 357.13037109 C53.94720578 375.33229494 28.56399835 388.89681912 2.1496582 392.13037109 C1.28727539 392.23994141 0.42489258 392.34951172 -0.46362305 392.46240234 C-32.89976355 395.98296752 -67.2206008 388.07452653 -92.9128418 367.56005859 C-93.8822168 366.75826172 -94.8515918 365.95646484 -95.8503418 365.13037109 C-96.41366211 364.6859668 -96.97698242 364.2415625 -97.55737305 363.78369141 C-99.02522521 362.61061283 -100.44248508 361.37481587 -101.8503418 360.13037109 C-101.8503418 359.47037109 -101.8503418 358.81037109 -101.8503418 358.13037109 C-102.5103418 358.13037109 -103.1703418 358.13037109 -103.8503418 358.13037109 C-103.8503418 357.47037109 -103.8503418 356.81037109 -103.8503418 356.13037109 C-104.5103418 356.13037109 -105.1703418 356.13037109 -105.8503418 356.13037109 C-105.8503418 355.47037109 -105.8503418 354.81037109 -105.8503418 354.13037109 C-106.5103418 354.13037109 -107.1703418 354.13037109 -107.8503418 354.13037109 C-127.72741437 331.14123161 -135.33185753 302.24920323 -134.08422852 272.31054688 C-132.58546076 251.93168593 -123.83176727 234.28789507 -111.8503418 218.13037109 C-111.1903418 217.14037109 -110.5303418 216.15037109 -109.8503418 215.13037109 C-109.1903418 215.13037109 -108.5303418 215.13037109 -107.8503418 215.13037109 C-107.8503418 214.47037109 -107.8503418 213.81037109 -107.8503418 213.13037109 C-107.1903418 213.13037109 -106.5303418 213.13037109 -105.8503418 213.13037109 C-105.5822168 212.53224609 -105.3140918 211.93412109 -105.0378418 211.31787109 C-103.85116773 209.13189256 -102.75435067 207.71704516 -100.8503418 206.13037109 C-100.1903418 206.13037109 -99.5303418 206.13037109 -98.8503418 206.13037109 C-98.8503418 205.47037109 -98.8503418 204.81037109 -98.8503418 204.13037109 C-84.91686409 192.45048195 -68.27220588 186.38094108 -50.8503418 182.13037109 C-49.51681145 181.79782679 -48.18342554 181.4647012 -46.8503418 181.13037109 C-47.80553711 180.62248047 -48.76073242 180.11458984 -49.74487305 179.59130859 C-53.13975016 177.78491283 -56.53201074 175.97365987 -59.9230957 174.16015625 C-61.53700818 173.2977946 -63.15247405 172.43834097 -64.76831055 171.57958984 C-67.47860114 170.12398748 -70.16762116 168.63620339 -72.8503418 167.13037109 C-73.41720703 166.81519531 -73.98407227 166.50001953 -74.56811523 166.17529297 C-86.22559051 159.64314042 -96.71502811 151.96840121 -105.8503418 142.13037109 C-105.8503418 141.47037109 -105.8503418 140.81037109 -105.8503418 140.13037109 C-106.5103418 140.13037109 -107.1703418 140.13037109 -107.8503418 140.13037109 C-109.41007313 138.01359286 -110.83264054 135.91644044 -112.2253418 133.69287109 C-112.63163818 133.04543945 -113.03793457 132.39800781 -113.45654297 131.73095703 C-124.59626698 113.72581909 -127.91951665 92.16870545 -123.3503418 71.44287109 C-118.86031165 53.42610057 -107.95228807 37.08224484 -93.8503418 25.13037109 C-91.01831055 23.82177734 -91.01831055 23.82177734 -88.8503418 23.13037109 C-88.8503418 22.47037109 -88.8503418 21.81037109 -88.8503418 21.13037109 C-62.36319282 2.61322911 -31.29877968 -0.08148275 0 0 Z " fill="#5F407B" transform="translate(143.850341796875,80.86962890625)"/>
<path d="M0 0 C-1.5805394 3.56248564 -3.76697935 6.33372621 -6.1875 9.375 C-16.93932506 23.34648296 -21.33389808 37.42160055 -20 55 C-18.01164463 69.31950046 -9.92155112 80.87297169 1.43505859 89.5769043 C16.39600433 100.5155559 33.41480074 108.3404062 50.125 116.1875 C50.83557556 116.5216391 51.54615112 116.8557782 52.27825928 117.20004272 C54.3107547 118.15285035 56.34602635 119.0993729 58.3828125 120.04296875 C59.56246582 120.58977295 60.74211914 121.13657715 61.95751953 121.69995117 C64.34050271 122.71819747 66.47159647 123.4976656 69 124 C69 124.66 69 125.32 69 126 C69.804375 126.185625 69.804375 126.185625 70.625 126.375 C73.4638286 127.12206016 76.22223202 128.05303364 79 129 C79 129.66 79 130.32 79 131 C79.9075 131.144375 80.815 131.28875 81.75 131.4375 C84.21476956 131.86409473 86.58847107 132.35074221 89 133 C89 133.99 89 134.98 89 136 C89.70898438 136.26683594 90.41796875 136.53367188 91.1484375 136.80859375 C101.56200428 141.15946754 111.18840871 147.95004266 119 156.08203125 C120.94779182 158.10419572 120.94779182 158.10419572 123.51171875 159.44140625 C126.4265523 161.26718111 127.84982056 163.12363748 129.8125 165.9375 C130.49570313 166.91589844 131.17890625 167.89429688 131.8828125 168.90234375 C132.58148438 169.92457031 133.28015625 170.94679688 134 172 C134.69867188 172.99128906 135.39734375 173.98257813 136.1171875 175.00390625 C153.12161611 199.61220199 158.9280567 231.76471101 153.75 261.125 C153.22362828 263.76859006 152.62339865 266.37573669 152 269 C151.75636719 270.07765625 151.51273438 271.1553125 151.26171875 272.265625 C147.41537937 286.77598588 139.20058914 300.27375894 130 312 C129.34 312.99 128.68 313.98 128 315 C127.34 315 126.68 315 126 315 C125.74863281 315.57492187 125.49726563 316.14984375 125.23828125 316.7421875 C115.52442198 334.45389305 90.60833214 345.34760799 72.33398438 351.31982422 C62.06883036 354.31132203 52.42462415 355.44397927 41.80908203 355.28125 C39.70978457 355.24938966 37.61123684 355.24019218 35.51171875 355.234375 C25.33000902 355.16500451 25.33000902 355.16500451 23 354 C21.06508913 353.73069319 19.12693527 353.48451454 17.1875 353.25 C-0.29865348 350.60406888 -17.54556477 341.29508143 -31 330 C-31.6290625 329.484375 -32.258125 328.96875 -32.90625 328.4375 C-38.97086896 322.9450149 -43.27562865 315.63625215 -47.76123047 308.85693359 C-48.87313415 307.19017376 -50.02220896 305.54835316 -51.17578125 303.91015625 C-54.45811166 298.67389039 -56.06672648 292.83641248 -58 287 C-58.39832031 285.96230469 -58.79664063 284.92460937 -59.20703125 283.85546875 C-67.43723263 260.26997998 -60.67532471 236.34068806 -50.91015625 214.5703125 C-50 213 -50 213 -48 212 C-47.608125 211.34 -47.21625 210.68 -46.8125 210 C-45.23346883 207.38643117 -43.58559186 204.9976364 -41.75 202.5625 C-40.93789063 201.48162109 -40.93789063 201.48162109 -40.109375 200.37890625 C-25.70741474 184.13669552 -2.2709193 174.84178608 19 173 C34.06392157 172.36182046 49.69752191 175.98962278 63 183 C63 183.66 63 184.32 63 185 C63.73476562 185.26683594 64.46953125 185.53367187 65.2265625 185.80859375 C77.06139869 190.89257267 86.09135913 203.44852239 90.80078125 215.15625 C94.51439368 225.40385096 95.95051984 234.10379691 95 245 C94.91492188 246.04671875 94.82984375 247.0934375 94.7421875 248.171875 C92.90947644 262.91155122 85.63388856 275.88649326 74.30078125 285.37109375 C60.5518143 295.10508224 44.82303304 298.84687907 28.1640625 296.62109375 C24.50021755 295.84815636 21.29739361 294.74008798 18 293 C18 292.34 18 291.68 18 291 C17.27683594 290.91492188 16.55367188 290.82984375 15.80859375 290.7421875 C9.48102742 289.0700907 4.56971184 283.37032793 1.0546875 278.0625 C-4.79222819 267.44201546 -6.06122436 255.68658838 -3.234375 243.7734375 C0.03473119 236.52154701 6.32989607 230.45630257 13.33203125 226.7734375 C19.78678559 224.35431766 26.59740335 223.64735793 33 226.5 C38.4332584 229.55005854 44.98784635 233.96353905 47 240 C47.6644814 246.14855574 48.22476539 252.19668367 44.625 257.5 C40.87970432 261.74826105 36.09695401 263.76348346 31 266 C29.67109616 267.1036623 29.67109616 267.1036623 29.875 269.875 C29.85623134 273.03212413 29.85623134 273.03212413 31 276 C39.47516744 275.97174944 44.88872117 275.04005181 51 269 C51.9075 268.113125 52.815 267.22625 53.75 266.3125 C59.61948105 258.65232982 61.04093035 249.38122417 60 240 C58.04278313 229.74483062 52.06106629 223.33706024 43.7578125 217.4453125 C34.31432334 212.49617512 21.00313363 212.18909951 10.82421875 215.015625 C3.73472012 217.41654578 3.73472012 217.41654578 -2 222 C-2.66 222 -3.32 222 -4 222 C-4 222.66 -4 223.32 -4 224 C-4.66 224 -5.32 224 -6 224 C-6.268125 224.5775 -6.53625 225.155 -6.8125 225.75 C-8 228 -8 228 -9.4375 229.8125 C-11.49664337 232.69530071 -12.66647137 235.72174211 -14 239 C-14.54027875 240.22977735 -15.08191183 241.45896074 -15.625 242.6875 C-19.23566845 251.38592855 -19.54474817 261.91320321 -16.0390625 270.7265625 C-15.69617188 271.47679687 -15.35328125 272.22703125 -15 273 C-14.36191406 274.43472656 -14.36191406 274.43472656 -13.7109375 275.8984375 C-6.60587979 290.98243703 3.07926993 300.69815177 18.70703125 306.87890625 C22.97410807 308.33163584 26.51222553 308.96046014 31 309 C32.37631064 309.04924064 33.75261177 309.09874735 35.12890625 309.1484375 C54.09227221 309.66101523 72.17082439 304.49334003 86.62890625 291.66796875 C95.64319997 282.48852767 101.75763131 270.43648264 105 258 C105.34675781 256.79601562 105.69351563 255.59203125 106.05078125 254.3515625 C110.86780471 234.83991131 105.1311675 213.8855322 95.22265625 196.96484375 C87.53190254 185.66447625 77.21503959 177.15849558 65.38671875 170.5234375 C64.59910156 170.02070313 63.81148438 169.51796875 63 169 C63 168.34 63 167.68 63 167 C62.154375 166.731875 61.30875 166.46375 60.4375 166.1875 C54.94290339 164.28936662 49.97086285 162.00266896 44.96875 159.046875 C41.80395421 157.3640074 38.47879798 156.11665895 35.13671875 154.83203125 C33 154 33 154 31 153 C31 152.34 31 151.68 31 151 C30.34 151 29.68 151 29 151 C29 150.34 29 149.68 29 149 C28.02417969 148.76152344 27.04835938 148.52304688 26.04296875 148.27734375 C21.47503254 146.96616627 17.47518062 144.82097102 13.3125 142.5625 C12.08551392 141.90423218 12.08551392 141.90423218 10.83374023 141.23266602 C9.1029342 140.30185798 7.37388006 139.36778588 5.64648438 138.43066406 C3.0168316 137.009099 0.37672565 135.60873117 -2.265625 134.2109375 C-11.79712099 129.1267574 -20.66510042 123.92437811 -29 117 C-30.22589844 116.01773438 -30.22589844 116.01773438 -31.4765625 115.015625 C-43.67633146 104.81514928 -50.79979466 90.67433109 -53 75 C-54.36698209 58.4258375 -51.15779325 42.72826773 -40.9296875 29.27734375 C-38.70116353 26.75727453 -36.38046503 24.37665018 -34 22 C-33.154375 21.08347656 -32.30875 20.16695312 -31.4375 19.22265625 C-23.90011804 11.23609892 -11.79506632 0 0 0 Z " fill="#A185B3" transform="translate(87,104)"/>
<path d="M0 0 C1.000811 0.00015106 2.00162201 0.00030212 3.03276062 0.00045776 C4.65006828 0.01594162 4.65006828 0.01594162 6.30004883 0.03173828 C7.40560623 0.03456818 8.51116364 0.03739807 9.65022278 0.04031372 C13.18595136 0.05152076 16.72142788 0.07662651 20.25708008 0.10205078 C22.65225872 0.11207989 25.04744132 0.12120586 27.44262695 0.12939453 C33.31836419 0.15146181 39.19395413 0.1849446 45.06958008 0.22705078 C43.80798343 3.49439552 42.63636296 6.06860162 40.38208008 8.75830078 C39.85356445 9.39703125 39.32504883 10.03576172 38.78051758 10.69384766 C38.2159082 11.36480469 37.65129883 12.03576172 37.06958008 12.72705078 C35.88069331 14.16340407 34.69320753 15.60091804 33.50708008 17.03955078 C32.62729492 18.10496094 32.62729492 18.10496094 31.72973633 19.19189453 C29.44599329 21.99149483 27.25578109 24.8504705 25.06958008 27.72705078 C21.32589636 32.63759696 17.47850983 37.44720196 13.56958008 42.22705078 C8.78197077 48.08383251 4.11320507 54.0118516 -0.47729492 60.02392578 C-7.35111347 69.02298292 -14.4309626 77.86156109 -21.51977539 86.69140625 C-24.70442674 90.66783884 -27.83783988 94.67869549 -30.93041992 98.72705078 C-35.00886031 104.06595081 -39.18296213 109.32213139 -43.39038086 114.55981445 C-47.31883805 119.45272429 -51.20366106 124.37827584 -55.07348633 129.31762695 C-57.61042527 132.55357451 -60.16420312 135.77418597 -62.74291992 138.97705078 C-66.50727852 143.66313504 -70.18606806 148.41364866 -73.86791992 153.16455078 C-78.4134209 159.0270846 -83.01307408 164.82533122 -87.73901367 170.54345703 C-90.26292451 173.63423554 -92.7240922 176.77001461 -95.18041992 179.91455078 C-102.81898971 189.68418553 -110.67902349 199.27379012 -118.55541992 208.85205078 C-120.01669804 210.6413165 -121.47490037 212.43309749 -122.93041992 214.22705078 C-123.35000977 214.74412598 -123.76959961 215.26120117 -124.2019043 215.79394531 C-130.33123298 223.3795488 -136.07004792 231.13890911 -141.49047852 239.24926758 C-142.61481074 240.92372988 -143.7694863 242.57775394 -144.93041992 244.22705078 C-145.26041992 244.22705078 -145.59041992 244.22705078 -145.93041992 244.22705078 C-146.03588135 243.5931543 -146.14134277 242.95925781 -146.25 242.30615234 C-148.97954574 223.87573524 -148.97954574 223.87573524 -154.16577148 206.05688477 C-158.08529094 195.77847946 -158.54306937 186.70253172 -158.24291992 175.78955078 C-158.2177559 174.17174747 -158.1949573 172.55390559 -158.17456055 170.93603516 C-158.12031917 167.03205958 -158.03451997 163.13000187 -157.93041992 159.22705078 C-157.31166992 160.03142578 -156.69291992 160.83580078 -156.05541992 161.66455078 C-153.49526617 164.75179502 -152.84333438 165.13200442 -148.89135742 165.54345703 C-147.11631836 165.66527344 -147.11631836 165.66527344 -145.30541992 165.78955078 C-144.1169043 165.87333984 -142.92838867 165.95712891 -141.70385742 166.04345703 C-140.78862305 166.10404297 -139.87338867 166.16462891 -138.93041992 166.22705078 C-138.93041992 165.56705078 -138.93041992 164.90705078 -138.93041992 164.22705078 C-137.69291992 163.23705078 -137.69291992 163.23705078 -136.43041992 162.22705078 C-132.82290964 159.32262835 -130.16073787 155.93323847 -127.32495117 152.28955078 C-125.00076478 149.31701876 -122.62805508 146.39158401 -120.23852539 143.47167969 C-113.98705815 135.8309975 -107.91089046 128.08127264 -101.93041992 120.22705078 C-99.78572083 117.42965261 -97.63630599 114.63588826 -95.48413086 111.84423828 C-93.59741206 109.39676561 -91.71711204 106.94517965 -89.85229492 104.48095703 C-89.23870117 103.67529297 -88.62510742 102.86962891 -87.99291992 102.03955078 C-87.46827148 101.34474609 -86.94362305 100.64994141 -86.40307617 99.93408203 C-84.93041992 98.22705078 -84.93041992 98.22705078 -81.93041992 96.22705078 C-80.96905075 94.57690845 -80.01325074 92.92299974 -79.09936523 91.24609375 C-76.96182372 87.55405775 -74.36646016 84.19492424 -71.80541992 80.78955078 C-71.26788086 80.05800781 -70.7303418 79.32646484 -70.17651367 78.57275391 C-69.65959961 77.88246094 -69.14268555 77.19216797 -68.61010742 76.48095703 C-68.14330566 75.85519775 -67.67650391 75.22943848 -67.19555664 74.5847168 C-66.77806152 74.13668701 -66.36056641 73.68865723 -65.93041992 73.22705078 C-65.27041992 73.22705078 -64.61041992 73.22705078 -63.93041992 73.22705078 C-63.69323242 72.51548828 -63.45604492 71.80392578 -63.21166992 71.07080078 C-61.71348793 67.74556757 -59.82073545 65.48045222 -57.43041992 62.72705078 C-53.83131013 58.51968685 -50.34677374 54.25767316 -46.99291992 49.85205078 C-43.50832793 45.28092459 -39.99023594 40.73989825 -36.43041992 36.22705078 C-32.8360159 31.66764666 -29.27412941 27.08555531 -25.74291992 22.47705078 C-24.14046997 20.39238647 -22.53564745 18.30958018 -20.93041992 16.22705078 C-20.1956543 15.27185547 -19.46088867 14.31666016 -18.70385742 13.33251953 C-18.01549805 12.45208984 -17.32713867 11.57166016 -16.61791992 10.66455078 C-16.02366211 9.90013672 -15.4294043 9.13572266 -14.81713867 8.34814453 C-10.65033286 3.66372309 -6.39769522 -0.0322302 0 0 Z " fill="#BAA5C7" transform="translate(401.930419921875,95.77294921875)"/>
<path d="M0 0 C0.99 0 1.98 0 3 0 C6.35370704 3.45322357 8.25445306 7.57794776 10 12 C11.2879728 13.70196405 12.62986661 15.36345179 14 17 C17.29046971 21.16792829 20.31452966 25.43117408 23.125 29.9375 C26.17782315 34.80587876 29.42317262 39.50492714 32.75 44.1875 C42.60413309 58.06774161 52.13749146 72.14641335 61.54345703 86.33349609 C65.93803469 92.95527358 70.41061845 99.51170423 75 106 C76.07340902 107.52569539 77.14632834 109.05173543 78.21875 110.578125 C78.75113281 111.33577148 79.28351563 112.09341797 79.83203125 112.87402344 C86.25484598 122.02315004 92.59406041 131.22483603 98.84960938 140.48925781 C102.06320253 145.23187081 105.34685662 149.84800868 108.93359375 154.31738281 C110 156 110 156 110 159 C65.86332817 159.83519175 65.86332817 159.83519175 52.8125 148.01953125 C45.97292455 140.92347172 40.80713308 132.50152033 35.47119141 124.26318359 C33.26116256 120.86342133 31.00571672 117.49454262 28.75 114.125 C27.93069651 112.89733095 27.11167871 111.66947119 26.29296875 110.44140625 C25.90544434 109.8602002 25.51791992 109.27899414 25.11865234 108.68017578 C24.07309902 107.10979212 23.03057544 105.53739245 21.98828125 103.96484375 C16.42218618 95.57618526 10.72620862 87.27978814 5 79 C3.95199219 77.48212891 3.95199219 77.48212891 2.8828125 75.93359375 C0.62580098 72.6836909 -1.59837503 69.48431246 -4.125 66.4375 C-6.3483237 63.54717919 -7.97110882 60.48459481 -9.70703125 57.28515625 C-12.22390764 52.83690039 -14.68808203 48.87461198 -19 46 C-19.28875 45.236875 -19.5775 44.47375 -19.875 43.6875 C-20.88068726 40.76642373 -20.88068726 40.76642373 -23.6875 38.5 C-24.450625 37.675 -25.21375 36.85 -26 36 C-25.81079358 31.48931885 -23.75195965 29.08532271 -20.875 25.75 C-17.30610104 21.55129534 -13.89579555 17.29459946 -10.60546875 12.875 C-9 11 -9 11 -6.9375 9.4765625 C-4.87982666 7.90841628 -3.99740785 6.64808853 -2.8125 4.375 C-1 1 -1 1 0 0 Z " fill="#CEC1D7" transform="translate(333,263)"/>
<path d="M0 0 C3.3125 0.9375 3.3125 0.9375 5.3125 2.9375 C5.82171526 5.73376877 6.24501383 8.49883361 6.625 11.3125 C8.69024645 24.82913573 13.20618367 36.56652873 24.25 45.25 C33.60759268 51.77141111 42.84649581 54.00879743 54.10546875 55.375 C58.99521664 56.23264153 58.99521664 56.23264153 61.3125 57.9375 C62.09765625 59.92578125 62.09765625 59.92578125 62.375 62.25 C62.48972656 63.00925781 62.60445312 63.76851562 62.72265625 64.55078125 C62.07385419 68.32619131 60.31707694 69.66440384 57.3125 71.9375 C54.58186702 72.42040937 52.23663983 72.66193285 49.5 72.75 C42.80279993 73.2372021 37.4759425 74.74223367 31.5 77.8125 C30.50552856 78.3226062 30.50552856 78.3226062 29.4909668 78.84301758 C25.87213377 80.80870507 23.15180153 82.98568535 20.3125 85.9375 C19.6525 85.9375 18.9925 85.9375 18.3125 85.9375 C18.03277344 86.51113281 17.75304687 87.08476563 17.46484375 87.67578125 C16.34279755 89.87803464 15.12229877 91.99176939 13.875 94.125 C10.64154423 99.99452821 8.66328384 105.55495769 7.60546875 112.1796875 C7.48316895 112.94023437 7.36086914 113.70078125 7.23486328 114.484375 C6.99817692 116.01561053 6.77858759 117.54960374 6.57763672 119.0859375 C6.08746015 122.350824 5.72371659 124.49629887 3.4375 126.94921875 C0.10378388 128.49964187 -2.21271011 127.88516997 -5.6875 126.9375 C-9.05054976 123.65358082 -9.17339133 120.49291858 -9.5625 115.9375 C-10.87656691 103.83099567 -15.85683862 92.00714338 -25 83.6875 C-33.82386839 76.65964022 -42.84053549 73.82646529 -53.94140625 72.7265625 C-57.5601491 72.32980052 -60.60783855 71.95781845 -63.6875 69.9375 C-65.75393547 67.28065439 -65.68499076 65.79447351 -65.625 62.375 C-64.6875 58.9375 -64.6875 58.9375 -62.5703125 57.27734375 C-59.16392275 55.69415719 -56.36263025 55.38477727 -52.625 55.0625 C-40.17541934 53.6775222 -28.65148721 48.45992014 -20.03125 39.1484375 C-18.76940376 37.46341112 -17.71069309 35.7759864 -16.6875 33.9375 C-16.33300781 33.34582031 -15.97851562 32.75414062 -15.61328125 32.14453125 C-11.68428216 25.06064813 -9.80868543 17.04625015 -9.3125 9 C-8.99348306 5.63191733 -8.59431904 4.80046918 -6.5625 1.8125 C-3.6875 -0.0625 -3.6875 -0.0625 0 0 Z " fill="#AF8D61" transform="translate(250.6875,25.0625)"/>
<path d="M0 0 C2.98297404 2.80750498 5.49277119 5.60109889 7.875 8.9375 C13.05213123 15.94572854 19.30762749 20.05787713 27 24 C25.472105 28.26047645 22.28328077 30.27461344 18.75 32.8125 C9.44046026 39.66037411 9.44046026 39.66037411 5 50 C2.4375 51.8125 2.4375 51.8125 0 53 C-2.64306709 50.47707232 -4.60213745 48.13037583 -5.8359375 44.625 C-9.32166387 36.76457006 -17.68591056 31.06338302 -25 27 C-23.58896212 23.52781255 -22.15718755 22.22617838 -18.9375 20.375 C-11.37025282 15.56613647 -5.66896395 8.58706643 -1 1 C-0.67 0.67 -0.34 0.34 0 0 Z " fill="#C09C73" transform="translate(249,63)"/>
<path d="M0 0 C1.39622936 4.30889327 -0.00318019 6.00636039 -2 10 C-2.039992 11.99960012 -2.04346799 14.00047242 -2 16 C-2.65901497 17.33713182 -3.32660329 18.67005298 -4 20 C-6.38772258 28.62000431 -6.2706372 37.37619763 -6.1875 46.25 C-6.18603872 47.58593686 -6.18538372 48.92187485 -6.18554688 50.2578125 C-6.15824814 56.28779961 -5.95079218 62.0344311 -5 68 C-4.34 68 -3.68 68 -3 68 C-2.67 71.63 -2.34 75.26 -2 79 C-1.34 79 -0.68 79 0 79 C0.09144287 79.54672363 0.18288574 80.09344727 0.27709961 80.65673828 C1.43453154 86.70791891 3.54418222 91.53453251 6.5625 96.875 C7.37813693 98.35054975 8.19201562 99.82707312 9.00390625 101.3046875 C9.36299072 101.94390137 9.7220752 102.58311523 10.09204102 103.24169922 C11 105 11 105 12 108 C13.485 108.495 13.485 108.495 15 109 C16.17578125 110.48828125 16.17578125 110.48828125 17.3125 112.3125 C19.72438124 115.86875733 22.33976826 117.71235516 26 120 C30.78723404 124.36170213 30.78723404 124.36170213 32 128 C34.01508358 128.73323796 34.01508358 128.73323796 36 129 C36 129.66 36 130.32 36 131 C36.86347046 131.42563232 36.86347046 131.42563232 37.74438477 131.85986328 C39.88756891 132.94316991 41.98872327 134.07976148 44.08984375 135.2421875 C53.27607075 140.25622939 61.838612 144.37636293 72 147 C73.77202439 147.57970512 75.54293626 148.16282658 77.3125 148.75 C81.69072969 150.07565056 85.4436946 150.25312808 90 150 C90 150.66 90 151.32 90 152 C107.05399358 152.44429242 123.44313154 152.70630576 140 148 C141.19834473 147.66258789 141.19834473 147.66258789 142.42089844 147.31835938 C150.68828396 144.92230273 158.45471199 142.29870983 165.6796875 137.515625 C169.25823912 135.1781199 173.06078124 133.27263588 176.84765625 131.296875 C179.1319128 130.18225786 179.1319128 130.18225786 180 128 C181.03125 127.46375 182.0625 126.9275 183.125 126.375 C187.17388674 124.18776634 189.67696128 121.17397075 192.51953125 117.609375 C193.25236328 116.81273437 193.25236328 116.81273437 194 116 C194.66 116 195.32 116 196 116 C196.061875 115.38125 196.12375 114.7625 196.1875 114.125 C197 112 197 112 199.5625 110.75 C200.366875 110.5025 201.17125 110.255 202 110 C202 109.34 202 108.68 202 108 C202.66 108 203.32 108 204 108 C204.061875 107.443125 204.12375 106.88625 204.1875 106.3125 C205 104 205 104 207.5 101.5625 C210.22423703 99.27433609 210.22423703 99.27433609 210.375 96.375 C210.58125 95.59125 210.7875 94.8075 211 94 C214.5625 92.1875 214.5625 92.1875 218 91 C216.48183222 95.45385133 214.05905973 99.04160857 211.3125 102.8125 C210.86841797 103.42689941 210.42433594 104.04129883 209.96679688 104.67431641 C202.71665612 114.60010435 202.71665612 114.60010435 199 118 C198.34 118 197.68 118 197 118 C197 118.66 197 119.32 197 120 C177.79754757 138.20192384 152.41434015 151.76644803 126 155 C125.13761719 155.10957031 124.27523437 155.21914063 123.38671875 155.33203125 C90.95057825 158.85259643 56.629741 150.94415544 30.9375 130.4296875 C29.968125 129.62789062 28.99875 128.82609375 28 128 C27.43667969 127.5555957 26.87335937 127.11119141 26.29296875 126.65332031 C24.82511658 125.48024174 23.40785672 124.24444478 22 123 C22 122.34 22 121.68 22 121 C21.34 121 20.68 121 20 121 C20 120.34 20 119.68 20 119 C19.34 119 18.68 119 18 119 C18 118.34 18 117.68 18 117 C17.34 117 16.68 117 16 117 C-3.86601232 94.02365242 -11.48190944 65.1314035 -10.24707031 35.20654297 C-9.30990537 23.04377187 -5.89270147 10.70716395 0 0 Z " fill="#332953" transform="translate(20,318)"/>
<path d="M0 0 C3.5564656 2.37097707 5.43335112 4.89164821 6.8125 8.875 C7.77240762 13.87190231 7.21992859 17.79267854 4.75 22.25 C2.00760129 26.09857634 -0.52888257 27.71034564 -5.1875 28.875 C-9.97193623 29.13384385 -13.80471665 28.57213786 -17.625 25.5625 C-21.37561024 21.62893317 -22.48640601 18.93311086 -22.5625 13.5 C-22.44203589 8.47396973 -21.80852288 5.58654845 -18.1875 1.875 C-11.86622767 -2.62256469 -7.29539819 -2.57484642 0 0 Z " fill="#B89464" transform="translate(482.1875,445.125)"/>
<path d="M0 0 C0.640625 1.8203125 0.640625 1.8203125 1 4 C-1.25 6.875 -1.25 6.875 -2.9140625 8.66796875 C-6.15729267 12.2938272 -9.07291998 16.17215248 -12.04003906 20.02490234 C-14.02206511 22.57533458 -15.95124293 24.95200212 -18.2578125 27.22265625 C-20.54426255 29.55524543 -21.15145106 31.88865389 -22 35 C-22.66 35 -23.32 35 -24 35 C-24.226875 35.556875 -24.45375 36.11375 -24.6875 36.6875 C-26.00556927 39.00981253 -27.52522439 40.60741851 -29.43359375 42.453125 C-34.69769662 47.65159068 -38.69088116 51.91870223 -41 59 C-42.57104585 60.78912304 -44.26722442 62.38335387 -46.00390625 64.01171875 C-48.23084555 66.22994204 -50.12805253 68.58596168 -52.0625 71.0625 C-54.35164339 73.99047411 -56.63183069 76.73799581 -59.3125 79.3125 C-61.82399862 81.82399862 -63.19930416 83.98249732 -65 87 C-66.28464036 88.68823374 -67.59819869 90.35479301 -68.9375 92 C-69.94103516 93.2375 -69.94103516 93.2375 -70.96484375 94.5 C-72.36771028 96.22329094 -73.77140596 97.94590713 -75.17578125 99.66796875 C-76.7887183 101.72990326 -77.94142708 103.61821093 -79 106 C-79.66 106 -80.32 106 -81 106 C-81.2475 106.556875 -81.495 107.11375 -81.75 107.6875 C-83.87913948 111.62640804 -85.67082087 114.55694029 -90 116 C-88.69625091 112.23288578 -87.1802346 109.81321567 -84.4375 106.9375 C-81.27082718 103.49124706 -78.40167365 99.95549053 -75.625 96.1875 C-72.6182092 92.11345239 -69.52158973 88.1769992 -66.25 84.3125 C-62.24468765 79.56431673 -58.43785781 74.70150027 -54.6875 69.75 C-50.32928324 63.99720539 -45.88590756 58.33334025 -41.3125 52.75 C-35.73315021 45.93642035 -30.33096507 39.00890817 -25 32 C-18.90018552 23.98024391 -12.68365043 16.08029466 -6.28979492 8.29174805 C-5.7610376 7.64633057 -5.23228027 7.00091309 -4.6875 6.3359375 C-3.98173828 5.47814697 -3.98173828 5.47814697 -3.26171875 4.60302734 C-2.0986507 3.12533679 -1.04311614 1.56467421 0 0 Z " fill="#816394" transform="translate(420,131)"/>
<path d="M0 0 C1.39622936 4.30889327 -0.00318019 6.00636039 -2 10 C-2.039992 11.99960012 -2.04346799 14.00047242 -2 16 C-2.65901497 17.33713182 -3.32660329 18.67005298 -4 20 C-6.38772258 28.62000431 -6.2706372 37.37619763 -6.1875 46.25 C-6.18603872 47.58593686 -6.18538372 48.92187485 -6.18554688 50.2578125 C-6.15824814 56.28779961 -5.95079218 62.0344311 -5 68 C-4.34 68 -3.68 68 -3 68 C-2.67 71.63 -2.34 75.26 -2 79 C-1.34 79 -0.68 79 0 79 C2.11161731 88.41002278 2.11161731 88.41002278 3 93 C2.01 92.67 1.02 92.34 0 92 C-1.16087964 89.59661636 -2.10922482 87.31537364 -3 84.8125 C-3.26127686 84.09795654 -3.52255371 83.38341309 -3.79174805 82.6472168 C-6.1889092 75.87757385 -7.7161184 69.06596708 -9 62 C-9.17055908 61.22100342 -9.34111816 60.44200684 -9.5168457 59.6394043 C-13.10131601 40.05794471 -9.60568792 17.45373932 0 0 Z " fill="#3B2D5A" transform="translate(20,318)"/>
<path d="M0 0 C0.70125 0.06703125 1.4025 0.1340625 2.125 0.203125 C4 0.75 4 0.75 6 3.75 C6.08203125 5.94140625 6.08203125 5.94140625 5.8125 8.3125 C5.73644531 9.09753906 5.66039062 9.88257813 5.58203125 10.69140625 C5 12.75 5 12.75 2 14.75 C-4.09326425 15.29404145 -4.09326425 15.29404145 -6.875 13.625 C-8.48998958 10.93335071 -8.87456746 8.88581361 -9 5.75 C-6.78095562 0.99490491 -5.20768167 -0.57437665 0 0 Z " fill="#B2956E" transform="translate(207,38.25)"/>
<path d="M0 0 C2.4375 1.4375 2.4375 1.4375 4 4 C4.28813548 7.19254113 3.98968476 9.95039 3 13 C0.8125 15.1875 0.8125 15.1875 -2 16 C-5.1875 15.375 -5.1875 15.375 -8 14 C-10.48038907 10.2794164 -10.46337203 8.40203429 -10 4 C-7.26646839 -0.10029741 -4.80388991 -0.80064832 0 0 Z " fill="#AF936F" transform="translate(296,38)"/>
<path d="M0 0 C1.9375 1.5625 1.9375 1.5625 3 4 C3.03396623 6.85882425 2.59660707 9.15464321 2 12 C0 14 0 14 -3.875 14.4375 C-7.22499505 14.34597008 -7.84584041 14.12783966 -10.5625 11.875 C-12.34196438 8.31607124 -12.2227635 6.74980806 -11 3 C-7.69442847 -1.16789454 -5.05635258 -1.3414813 0 0 Z " fill="#8D7558" transform="translate(210,125)"/>
<path d="M0 0 C2.8125 0.875 2.8125 0.875 4.8125 1.875 C5.87649452 5.81897969 6.28603207 9.580679 4.875 13.4375 C2.10906804 15.36527076 0.00951636 15.44101193 -3.3125 15.2578125 C-5.1875 14.875 -5.1875 14.875 -7.1875 13.25 C-8.5056446 10.11940659 -8.73764903 8.2446628 -8.1875 4.875 C-5.6024623 1.30156554 -4.51178043 -0.17693257 0 0 Z " fill="#B59261" transform="translate(294.1875,124.125)"/>
<path d="M0 0 C0.33 0 0.66 0 1 0 C1.25 7.625 1.25 7.625 -1 11 C-5.94411014 13.25628732 -10.55177478 13.27823734 -15.87109375 13.23046875 C-16.7116481 13.23001053 -17.55220245 13.22955231 -18.41822815 13.2290802 C-20.18907083 13.22607057 -21.95991116 13.21822309 -23.73071289 13.20581055 C-26.42538961 13.18758192 -29.1197212 13.18530098 -31.81445312 13.18554688 C-33.54166961 13.18062957 -35.26888378 13.17480032 -36.99609375 13.16796875 C-37.79421982 13.16685593 -38.59234589 13.1657431 -39.41465759 13.16459656 C-44.0404331 13.12581196 -48.43571178 12.76065147 -53 12 C-53 11.67 -53 11.34 -53 11 C-46.91989707 10.22019022 -41.10491402 9.91221981 -34.984375 10.078125 C-33.30470629 10.1053517 -31.62501743 10.13135806 -29.9453125 10.15625 C-27.33570244 10.19962848 -24.72716194 10.25062709 -22.11816406 10.32226562 C-19.57339903 10.38890743 -17.02980609 10.42362278 -14.484375 10.453125 C-13.7072113 10.48206848 -12.93004761 10.51101196 -12.1293335 10.54083252 C-8.06941023 10.56084646 -6.24747078 10.19539729 -3.02050781 7.64746094 C-0.96409951 4.95295977 -0.28629259 3.34008017 0 0 Z " fill="#3E324E" transform="translate(462,424)"/>
<path d="M0 0 C1.24106003 0.00007553 2.48212006 0.00015106 3.76078796 0.00022888 C5.11502116 0.00533548 6.46925395 0.01055148 7.82348633 0.01586914 C9.20925343 0.01773456 10.59502119 0.01915788 11.98078918 0.02015686 C15.62549668 0.02397229 19.27016423 0.03379426 22.91485596 0.04486084 C26.63504496 0.05509589 30.35524042 0.05965897 34.07543945 0.06469727 C41.37298369 0.07541741 48.67049503 0.09248214 55.96801758 0.11352539 C55.96801758 0.77352539 55.96801758 1.43352539 55.96801758 2.11352539 C55.28643082 2.12383286 54.60484406 2.13414032 53.90260315 2.14476013 C46.78052104 2.25330891 39.65855316 2.36786462 32.53662109 2.48583984 C29.88202048 2.52951035 27.2274143 2.57071944 24.57275391 2.61083984 C20.74740068 2.66891925 16.92217157 2.73250363 13.09692383 2.79711914 C11.91844376 2.81383163 10.73996368 2.83054413 9.52577209 2.84776306 C3.27170708 2.95908897 -2.82850201 3.30387467 -9.03198242 4.11352539 C-9.03198242 3.12352539 -9.03198242 2.13352539 -9.03198242 1.11352539 C-5.77826698 0.02895358 -3.42298922 -0.00694318 0 0 Z " fill="#4F365C" transform="translate(408.031982421875,80.886474609375)"/>
<path d="M0 0 C3.47907886 3.22373362 6.11282399 6.83758615 8.75 10.75 C9.21172607 11.42812744 9.67345215 12.10625488 10.14916992 12.80493164 C16.55964014 22.24936486 22.87737511 31.75772904 29.18212891 41.27294922 C30.38224498 43.0732845 31.59269146 44.86678135 32.81396484 46.65283203 C33.36391113 47.45962402 33.91385742 48.26641602 34.48046875 49.09765625 C34.96797607 49.80543213 35.4554834 50.51320801 35.95776367 51.24243164 C37 53 37 53 37 55 C35.1875 54.9375 35.1875 54.9375 33 54 C31.375 50.625 31.375 50.625 30 47 C29.34 46.01 28.68 45.02 28 44 C27.01 44 26.02 44 25 44 C25.07734375 42.87271484 25.07734375 42.87271484 25.15625 41.72265625 C24.97865164 38.62800479 24.45790689 37.76511803 22.5 35.4375 C18.91110086 30.97701107 15.83857028 26.24809622 12.734375 21.44140625 C11.23059856 18.91939749 11.23059856 18.91939749 9 18 C8.28752268 16.3523962 7.62599617 14.68236471 7 13 C6.34786461 11.65949948 5.68620031 10.32338632 5 9 C4.34 9 3.68 9 3 9 C2.01 6.03 1.02 3.06 0 0 Z " fill="#35284A" transform="translate(422,365)"/>
<path d="M0 0 C3.54745753 2.36497169 5.45799773 4.88801875 6.8125 8.875 C7.45001528 13.12271418 7.73948778 16.49755781 5.28515625 20.14453125 C4.79917969 20.71558594 4.31320312 21.28664063 3.8125 21.875 C3.90789062 21.10414063 4.00328125 20.33328125 4.1015625 19.5390625 C4.26785156 18.03472656 4.26785156 18.03472656 4.4375 16.5 C4.55351562 15.50226563 4.66953125 14.50453125 4.7890625 13.4765625 C4.79679687 12.61804688 4.80453125 11.75953125 4.8125 10.875 C4.1525 10.215 3.4925 9.555 2.8125 8.875 C2.4825 8.875 2.1525 8.875 1.8125 8.875 C1.8125 7.225 1.8125 5.575 1.8125 3.875 C-4.75242112 3.09058847 -10.65587378 2.76585592 -17.1875 3.875 C-17.5175 5.195 -17.8475 6.515 -18.1875 7.875 C-18.8475 7.875 -19.5075 7.875 -20.1875 7.875 C-20.5175 11.505 -20.8475 15.135 -21.1875 18.875 C-21.5175 18.875 -21.8475 18.875 -22.1875 18.875 C-22.52071563 13.6731338 -22.79897189 9.27628975 -20.6875 4.4375 C-14.23994173 -2.17124723 -8.6987121 -3.07013368 0 0 Z " fill="#907B58" transform="translate(482.1875,445.125)"/>
<path d="M0 0 C1.32 0.33 2.64 0.66 4 1 C4.66 3.31 5.32 5.62 6 8 C4.68 6.68 3.36 5.36 2 4 C0.41284471 5.87187399 -1.16973351 7.7473238 -2.75 9.625 C-3.1934375 10.14707031 -3.636875 10.66914063 -4.09375 11.20703125 C-6.31299748 13.85054663 -8.35417195 16.48093366 -10.203125 19.3984375 C-10.79609375 20.25695312 -11.3890625 21.11546875 -12 22 C-12.66 22 -13.32 22 -14 22 C-14.22945313 22.69222656 -14.45890625 23.38445312 -14.6953125 24.09765625 C-16.2798282 27.62249207 -18.4745675 30.44570731 -20.875 33.4375 C-24.11532057 37.5191501 -27.16292378 41.62562434 -30 46 C-30.66 44.68 -31.32 43.36 -32 42 C-31.2575 41.278125 -30.515 40.55625 -29.75 39.8125 C-26.54912699 36.53887988 -23.78176991 33.31337345 -21.4375 29.375 C-20.11029303 27.18222327 -18.79212982 25.79212982 -17 24 C-15.98133771 22.34467377 -14.98189187 20.67739862 -14 19 C-12.4375 16.6875 -12.4375 16.6875 -11 15 C-10.34 15 -9.68 15 -9 15 C-8.566875 14.1028125 -8.566875 14.1028125 -8.125 13.1875 C-7 11 -7 11 -5 8 C-4.34 8 -3.68 8 -3 8 C-2.690625 7.05125 -2.38125 6.1025 -2.0625 5.125 C-1 2 -1 2 0 0 Z " fill="#402B59" transform="translate(296,307)"/>
<path d="M0 0 C0.598125 0.20625 1.19625 0.4125 1.8125 0.625 C0.99986191 1.30073563 0.18722382 1.97647125 -0.65003967 2.67268372 C-3.81339829 6.35322802 -3.8058643 8.06718251 -3.78686523 12.86206055 C-3.79080795 13.57158875 -3.79475067 14.28111694 -3.79881287 15.012146 C-3.8055 17.34606635 -3.77642069 19.67800941 -3.74609375 22.01171875 C-3.74184197 23.63645549 -3.73951489 25.26119832 -3.73902893 26.88594055 C-3.7328718 30.28467487 -3.71020735 33.68274797 -3.67456055 37.08129883 C-3.62918023 41.44290792 -3.61452857 45.80392045 -3.61082363 50.16574383 C-3.60640164 53.51743986 -3.59111133 56.8690101 -3.5719471 60.22065163 C-3.56305547 61.82944516 -3.55633005 63.43825214 -3.55178642 65.04706383 C-3.54277052 67.2903149 -3.52040688 69.5330193 -3.49389648 71.77612305 C-3.48325668 73.05343796 -3.47261688 74.33075287 -3.46165466 75.64677429 C-3.49675971 78.74194862 -3.49675971 78.74194862 -1.1875 80.625 C-2.5075 80.295 -3.8275 79.965 -5.1875 79.625 C-5.25691159 69.48964856 -5.31026615 59.35435336 -5.34293652 49.21881294 C-5.35861411 44.51281483 -5.37989036 39.80697895 -5.41381836 35.10107422 C-5.44633745 30.5623502 -5.46433723 26.02378252 -5.47213173 21.48495102 C-5.47768868 19.75052299 -5.48853963 18.01610383 -5.50469017 16.2817421 C-5.52636587 13.85837342 -5.52947113 11.43565653 -5.52807617 9.01220703 C-5.538862 8.29003998 -5.54964783 7.56787292 -5.5607605 6.82382202 C-5.54826355 4.82669067 -5.54826355 4.82669067 -5.1875 1.625 C-2.1875 -0.375 -2.1875 -0.375 0 0 Z " fill="#704F84" transform="translate(248.1875,171.375)"/>
<path d="M0 0 C1.32 0.33 2.64 0.66 4 1 C4 1.66 4 2.32 4 3 C6.90600261 4.25664978 8.79604584 5 12 5 C12 5.66 12 6.32 12 7 C16.95 9.31 21.9 11.62 27 14 C27 14.66 27 15.32 27 16 C27.886875 16.12375 28.77375 16.2475 29.6875 16.375 C32.70387502 16.94412736 35.20326054 17.76614436 38 19 C38 19.66 38 20.32 38 21 C39.175625 21.0928125 39.175625 21.0928125 40.375 21.1875 C45.35288793 22.3032335 49.52453694 24.60306227 54 27 C54 27.66 54 28.32 54 29 C49.86621788 28.36443817 46.53010102 26.99477327 42.765625 25.19140625 C41.8786644 24.76774529 41.8786644 24.76774529 40.9737854 24.33552551 C39.06221145 23.41852745 37.15569156 22.49165534 35.25 21.5625 C34.60226624 21.24831116 33.95453247 20.93412231 33.28717041 20.6104126 C25.35888582 16.75715969 17.49343502 12.8179406 9.875 8.375 C9.20243164 7.98642822 8.52986328 7.59785645 7.83691406 7.19750977 C4.50635516 5.19062323 2.06177862 3.32593486 0 0 Z " fill="#7E5F93" transform="translate(90,194)"/>
<path d="M0 0 C0.99 0 1.98 0 3 0 C4.5 2.15234375 4.5 2.15234375 6 4.9375 C8.02375115 9.07137583 8.02375115 9.07137583 12 11 C12.144375 11.639375 12.28875 12.27875 12.4375 12.9375 C12.79631446 15.16622613 12.79631446 15.16622613 14.875 16.1875 C16.56752155 16.83464059 18.28096593 17.42698864 20 18 C20 18.66 20 19.32 20 20 C20.845625 20.268125 21.69125 20.53625 22.5625 20.8125 C26 22 26 22 29.5 23.625 C32.99028121 24.9961819 35.2986895 25.2708276 39 25 C39 25.66 39 26.32 39 27 C40.32 27.33 41.64 27.66 43 28 C32.5909157 28.94628039 22.19602132 24.133965 14 18 C8.65386759 13.25646633 3.46788074 8.30523771 0 2 C0 1.34 0 0.68 0 0 Z " fill="#37294B" transform="translate(365,407)"/>
<path d="M0 0 C0.71285156 0.28875 1.42570312 0.5775 2.16015625 0.875 C10.71483687 4.26392437 18.79541669 6.49544013 27.96875 7.5078125 C30.7477887 7.95904816 32.60049275 8.57676285 35 10 C34.67 10.99 34.34 11.98 34 13 C33.45472656 12.68160156 32.90945313 12.36320312 32.34765625 12.03515625 C29.62062023 10.8327194 27.40485043 10.62724894 24.4375 10.4375 C21.33400708 10.23116194 18.96590813 9.98863604 16 9 C16 8.34 16 7.68 16 7 C14.824375 7.061875 13.64875 7.12375 12.4375 7.1875 C7.90257786 7.17943074 4.9427351 6.25299149 1 4 C0.0625 1.8125 0.0625 1.8125 0 0 Z " fill="#806A4A" transform="translate(277,73)"/>
<path d="M0 0 C5.03980951 4.51283323 8.45448949 9.91764121 12.125 15.5625 C13.35581515 17.43942913 14.58755187 19.31575433 15.8203125 21.19140625 C16.62879639 22.43192749 16.62879639 22.43192749 17.45361328 23.69750977 C18.97199065 26.01754586 18.97199065 26.01754586 20.69873047 28.17553711 C22 30 22 30 22 32 C21.34 32 20.68 32 20 32 C19.67 31.34 19.34 30.68 19 30 C18.34 29.773125 17.68 29.54625 17 29.3125 C16.34 28.879375 15.68 28.44625 15 28 C14.25 24.375 14.25 24.375 14 21 C13.01 20.67 12.02 20.34 11 20 C9.28125 17.56640625 9.28125 17.56640625 7.5 14.5625 C4.90904148 10.1802422 4.90904148 10.1802422 1 7 C0.3125 3.375 0.3125 3.375 0 0 Z " fill="#3E2E52" transform="translate(374,295)"/>
<path d="M0 0 C7.5276878 -0.0462929 15.05536088 -0.08185365 22.58315849 -0.10362434 C26.07843927 -0.11407198 29.57362283 -0.12824883 33.06884766 -0.15087891 C37.08497056 -0.17671953 41.10099097 -0.18646466 45.1171875 -0.1953125 C47.00472244 -0.21079636 47.00472244 -0.21079636 48.9303894 -0.22659302 C50.09144196 -0.22674408 51.25249451 -0.22689514 52.44873047 -0.22705078 C53.47465302 -0.231492 54.50057556 -0.23593323 55.55758667 -0.24050903 C58 0 58 0 60 2 C60.125 5.625 60.125 5.625 60 9 C58.02 9.99 58.02 9.99 56 11 C56.875 5.25 56.875 5.25 58 3 C54.95362701 1.98454234 52.80222902 1.8458023 49.6105957 1.79467773 C48.50968094 1.77473251 47.40876617 1.75478729 46.27449036 1.73423767 C44.49312935 1.70916893 44.49312935 1.70916893 42.67578125 1.68359375 C41.45924362 1.66281265 40.24270599 1.64203156 38.98930359 1.62062073 C35.09709404 1.55515283 31.20481615 1.49625285 27.3125 1.4375 C24.67642518 1.39431218 22.04035731 1.3506978 19.40429688 1.30664062 C12.93627049 1.19947422 6.46817589 1.09770255 0 1 C0 0.67 0 0.34 0 0 Z " fill="#714A83" transform="translate(408,83)"/>
<path d="M0 0 C2.8125 0.875 2.8125 0.875 4.8125 1.875 C5.87649452 5.81897969 6.28603207 9.580679 4.875 13.4375 C2.10906804 15.36527076 0.00951636 15.44101193 -3.3125 15.2578125 C-5.1875 14.875 -5.1875 14.875 -7.1875 13.25 C-8.5056446 10.11940659 -8.73764903 8.2446628 -8.1875 4.875 C-5.6024623 1.30156554 -4.51178043 -0.17693257 0 0 Z M-5.0625 4 C-7.50637449 6.65826613 -7.50637449 6.65826613 -7 9.6875 C-6.731875 10.409375 -6.46375 11.13125 -6.1875 11.875 C-5.5275 11.875 -4.8675 11.875 -4.1875 11.875 C-4.1875 12.535 -4.1875 13.195 -4.1875 13.875 C-0.7225 13.38 -0.7225 13.38 2.8125 12.875 C2.8125 9.575 2.8125 6.275 2.8125 2.875 C-0.91977666 1.48872581 -1.77184406 1.56777604 -5.0625 4 Z " fill="#7A674E" transform="translate(294.1875,124.125)"/>
<path d="M0 0 C0.66 0 1.32 0 2 0 C1.73445313 1.01578125 1.46890625 2.0315625 1.1953125 3.078125 C0.83743334 4.46846518 0.4807465 5.8591126 0.125 7.25 C-0.060625 7.97276123 -0.24625 8.69552246 -0.4375 9.44018555 C-1.78362236 14.80867791 -2.70487645 20.13794279 -3.3125 25.64453125 C-4 28 -4 28 -5.83984375 29.828125 C-9.17249829 31.63607502 -11.42896508 30.97391862 -15 30 C-16.9375 28.375 -16.9375 28.375 -18 26 C-18.1875 22.25 -18.1875 22.25 -18 19 C-15.84622436 21.62198774 -14.59927826 23.64404172 -14 27 C-11.69 27.33 -9.38 27.66 -7 28 C-6.78851318 26.88757935 -6.78851318 26.88757935 -6.57275391 25.75268555 C-5.93054888 22.39623069 -5.27790463 19.04188922 -4.625 15.6875 C-4.40328125 14.52025391 -4.1815625 13.35300781 -3.953125 12.15039062 C-3.73398437 11.03212891 -3.51484375 9.91386719 -3.2890625 8.76171875 C-3.09006348 7.73006592 -2.89106445 6.69841309 -2.68603516 5.63549805 C-2 3 -2 3 0 0 Z " fill="#857251" transform="translate(260,122)"/>
<path d="M0 0 C0.70125 0.06703125 1.4025 0.1340625 2.125 0.203125 C4 0.75 4 0.75 6 3.75 C6.08203125 5.94140625 6.08203125 5.94140625 5.8125 8.3125 C5.73644531 9.09753906 5.66039062 9.88257813 5.58203125 10.69140625 C5 12.75 5 12.75 2 14.75 C-4.09326425 15.29404145 -4.09326425 15.29404145 -6.875 13.625 C-8.48998958 10.93335071 -8.87456746 8.88581361 -9 5.75 C-6.78095562 0.99490491 -5.20768167 -0.57437665 0 0 Z M-7 3.75 C-7.25015873 7.33357241 -7.25015873 7.33357241 -7 10.75 C-5.68 10.75 -4.36 10.75 -3 10.75 C-3 11.41 -3 12.07 -3 12.75 C-1.00045254 12.79254356 1.00041636 12.79080783 3 12.75 C4.23267348 11.74163938 4.23267348 11.74163938 4.09765625 9.68359375 C4.08605469 8.85988281 4.07445312 8.03617188 4.0625 7.1875 C4.05347656 6.36121094 4.04445312 5.53492188 4.03515625 4.68359375 C4.02355469 4.04550781 4.01195312 3.40742187 4 2.75 C2.741875 2.54375 1.48375 2.3375 0.1875 2.125 C-0.52019531 2.00898437 -1.22789062 1.89296875 -1.95703125 1.7734375 C-4.31755824 1.55422152 -4.31755824 1.55422152 -7 3.75 Z " fill="#5A4C37" transform="translate(207,38.25)"/>
<path d="M0 0 C10.56 0 21.12 0 32 0 C28.80046241 3.19953759 25.08901017 2.95612992 20.703125 3.1328125 C13.73888795 3.11705631 6.91040805 2.89166556 0 2 C0 1.34 0 0.68 0 0 Z " fill="#372E59" transform="translate(111,471)"/>
<path d="M0 0 C2.4375 1.4375 2.4375 1.4375 4 4 C4.28813548 7.19254113 3.98968476 9.95039 3 13 C0.8125 15.1875 0.8125 15.1875 -2 16 C-5.1875 15.375 -5.1875 15.375 -8 14 C-10.48038907 10.2794164 -10.46337203 8.40203429 -10 4 C-7.26646839 -0.10029741 -4.80388991 -0.80064832 0 0 Z M-8 4 C-8.32752234 6.71454956 -8.1308425 9.25230759 -8 12 C-7.02089415 13.19695276 -7.02089415 13.19695276 -5.1875 13.1328125 C-4.465625 13.13023438 -3.74375 13.12765625 -3 13.125 C-2.278125 13.12757812 -1.55625 13.13015625 -0.8125 13.1328125 C1.02089415 13.19695276 1.02089415 13.19695276 2 12 C2.0979057 10.50261876 2.12974864 9.00057108 2.125 7.5 C2.12757813 6.6853125 2.13015625 5.870625 2.1328125 5.03125 C2.2245178 3.00469623 2.2245178 3.00469623 1 2 C-4.02509316 1.45584266 -4.02509316 1.45584266 -8 4 Z " fill="#624F3B" transform="translate(296,38)"/>
<path d="M0 0 C0.33 0.66 0.66 1.32 1 2 C-2.43116511 8.86233022 -7.62460567 14.62460567 -13 20 C-13.33 20.99 -13.66 21.98 -14 23 C-15.62890625 24.38671875 -15.62890625 24.38671875 -17.5625 25.6875 C-18.52349609 26.34298828 -18.52349609 26.34298828 -19.50390625 27.01171875 C-20.24447266 27.50091797 -20.24447266 27.50091797 -21 28 C-19.34440663 24.24551231 -16.9483708 21.14827008 -14.4375 17.9375 C-14.00002441 17.37329346 -13.56254883 16.80908691 -13.11181641 16.2277832 C-8.8373045 10.73977718 -4.44162732 5.35355563 0 0 Z " fill="#816296" transform="translate(445,100)"/>
<path d="M0 0 C0 0.99 0 1.98 0 3 C-3.65512365 5.4367491 -6.75638662 5.47472515 -11 5.8125 C-17.70444574 6.44311266 -23.00526336 7.82728014 -28.99609375 11.07421875 C-29.65738281 11.37972656 -30.31867188 11.68523437 -31 12 C-31.66 11.67 -32.32 11.34 -33 11 C-28.25 8 -28.25 8 -26 8 C-26 7.34 -26 6.68 -26 6 C-19.90047137 3.20438271 -14.0699983 2.34336963 -7.4609375 1.64697266 C-3.60701851 1.29286495 -3.60701851 1.29286495 0 0 Z " fill="#7C634B" transform="translate(311,92)"/>
<path d="M0 0 C0.33 0.99 0.66 1.98 1 3 C-0.0625 4.75 -0.0625 4.75 -2 7 C-2.41507812 7.51691406 -2.83015625 8.03382813 -3.2578125 8.56640625 C-7.0801575 13.23468007 -11.37530723 17.13826416 -16 21 C-16 16.79561137 -13.72490305 14.55900448 -11.25 11.375 C-10.8065625 10.776875 -10.363125 10.17875 -9.90625 9.5625 C-7.38352014 6.28295118 -5.93985706 4.92826484 -2 4 C-0.71563266 2.0162233 -0.71563266 2.0162233 0 0 Z " fill="#4E3560" transform="translate(349,132)"/>
<path d="M0 0 C0.33 0.66 0.66 1.32 1 2 C-0.56946368 4.4889777 -2.15426349 6.96545314 -3.75 9.4375 C-4.1934375 10.14455078 -4.636875 10.85160156 -5.09375 11.58007812 C-5.53203125 12.25361328 -5.9703125 12.92714844 -6.421875 13.62109375 C-6.81987305 14.2442749 -7.21787109 14.86745605 -7.62792969 15.50952148 C-9.31313133 17.34015423 -10.57951462 17.61983083 -13 18 C-12.5788897 13.08704646 -10.38433097 11.38433097 -7 8 C-6.855625 7.13375 -6.71125 6.2675 -6.5625 5.375 C-6.376875 4.59125 -6.19125 3.8075 -6 3 C-2.9375 1.1875 -2.9375 1.1875 0 0 Z " fill="#3F2D5A" transform="translate(237,409)"/>
<path d="M0 0 C0.33 0.99 0.66 1.98 1 3 C-0.3125 5.1875 -0.3125 5.1875 -2 7 C-2.66 7 -3.32 7 -4 7 C-4.268125 7.556875 -4.53625 8.11375 -4.8125 8.6875 C-8.16544215 15.21691367 -12.05765357 21.95616344 -19 25 C-17.65784868 22.10240975 -16.12982822 19.74740787 -14.1015625 17.28515625 C-13.53953125 16.59873047 -12.9775 15.91230469 -12.3984375 15.20507812 C-11.81320312 14.49802734 -11.22796875 13.79097656 -10.625 13.0625 C-9.47124155 11.65764456 -8.31759316 10.25269873 -7.1640625 8.84765625 C-6.62040039 8.18781738 -6.07673828 7.52797852 -5.51660156 6.84814453 C-3.65691232 4.58191021 -1.82365973 2.29529586 0 0 Z " fill="#785B8C" transform="translate(329,247)"/>
<path d="M0 0 C0.96357422 -0.01224609 1.92714844 -0.02449219 2.91992188 -0.03710938 C3.84998047 -0.03904297 4.78003906 -0.04097656 5.73828125 -0.04296875 C6.59075439 -0.04707764 7.44322754 -0.05118652 8.3215332 -0.05541992 C10.86470347 0.20569394 12.49370312 0.90860354 14.6875 2.1875 C13.25083984 2.13529297 13.25083984 2.13529297 11.78515625 2.08203125 C3.3584555 1.87788363 -4.46799381 2.4593097 -12.72631836 4.20825195 C-18.95683712 5.49344097 -18.95683712 5.49344097 -22.3125 4.1875 C-21.53003906 3.98253906 -20.74757813 3.77757812 -19.94140625 3.56640625 C-18.92949219 3.29699219 -17.91757813 3.02757812 -16.875 2.75 C-15.86566406 2.48316406 -14.85632813 2.21632813 -13.81640625 1.94140625 C-8.93223013 0.47081968 -5.47171749 0.00361647 0 0 Z " fill="#7E6193" transform="translate(107.3125,275.8125)"/>
<path d="M0 0 C1.19631517 3.5889455 0.77296069 4.11836485 -0.80078125 7.4140625 C-1.20103516 8.25710938 -1.60128906 9.10015625 -2.01367188 9.96875 C-2.44228516 10.8453125 -2.87089844 11.721875 -3.3125 12.625 C-3.72951172 13.50929688 -4.14652344 14.39359375 -4.57617188 15.3046875 C-7.73073101 21.8653655 -7.73073101 21.8653655 -10 23 C-9.34 20.03 -8.68 17.06 -8 14 C-7.67 14 -7.34 14 -7 14 C-6.67 12.02 -6.34 10.04 -6 8 C-5.34 8 -4.68 8 -4 8 C-3.67 6.35 -3.34 4.7 -3 3 C-2.01 2.67 -1.02 2.34 0 2 C0 1.34 0 0.68 0 0 Z " fill="#433258" transform="translate(248,386)"/>
<path d="M0 0 C3.62578134 0.47337332 7.25046578 0.95467791 10.875 1.4375 C12.42380859 1.63956055 12.42380859 1.63956055 14.00390625 1.84570312 C15.48310547 2.04389648 15.48310547 2.04389648 16.9921875 2.24609375 C17.90339355 2.36654053 18.81459961 2.4869873 19.75341797 2.61108398 C22 3 22 3 24 4 C24 4.66 24 5.32 24 6 C24.66 6.33 25.32 6.66 26 7 C24.76636719 6.78150391 24.76636719 6.78150391 23.5078125 6.55859375 C18.93836196 5.83094183 14.3467038 5.32327609 9.74609375 4.83789062 C6.1248135 4.41689113 3.12645436 3.93580982 0 2 C0 1.34 0 0.68 0 0 Z " fill="#7D6448" transform="translate(187,93)"/>
<path d="M0 0 C3.3772445 1.39275254 4.87070305 2.82273931 6.75 5.9375 C7.17796875 6.62714844 7.6059375 7.31679688 8.046875 8.02734375 C9 10 9 10 9 13 C9.99 13.33 10.98 13.66 12 14 C13.203125 15.5234375 13.203125 15.5234375 14.25 17.375 C14.60578125 17.98085938 14.9615625 18.58671875 15.328125 19.2109375 C16 21 16 21 15 24 C12.49250203 20.38013325 9.99529185 16.75328923 7.5 13.125 C6.78457031 12.09246094 6.06914062 11.05992187 5.33203125 9.99609375 C4.65527344 9.00996094 3.97851562 8.02382813 3.28125 7.0078125 C2.65283203 6.09660645 2.02441406 5.18540039 1.37695312 4.24658203 C0 2 0 2 0 0 Z " fill="#2C2341" transform="translate(339,369)"/>
<path d="M0 0 C0.433125 0.495 0.86625 0.99 1.3125 1.5 C2.99740483 3.33218192 2.99740483 3.33218192 6 3 C6.42925781 3.48082031 6.85851562 3.96164062 7.30078125 4.45703125 C9.77777445 6.70625496 11.89990549 6.51074761 15.1875 6.6875 C16.27417969 6.75324219 17.36085938 6.81898438 18.48046875 6.88671875 C19.72763672 6.94279297 19.72763672 6.94279297 21 7 C20.67 7.66 20.34 8.32 20 9 C15.48064076 10.28986004 11.67531835 10.19927427 7.1875 8.875 C3.86567366 6.92098451 2.0702794 5.22963586 0 2 C0 1.34 0 0.68 0 0 Z " fill="#7B6345" transform="translate(461,464)"/>
<path d="M0 0 C0.66 0 1.32 0 2 0 C0.27502493 4.6029598 -1.9095871 8.93255824 -4.125 13.3125 C-4.49753906 14.05306641 -4.87007813 14.79363281 -5.25390625 15.55664062 C-6.16744806 17.37201217 -7.08347487 19.18613282 -8 21 C-9.27597072 17.17208785 -8.86635876 14.93193593 -8 11 C-6.0625 7.5625 -6.0625 7.5625 -4 5 C-3.34 5 -2.68 5 -2 5 C-2 4.01 -2 3.02 -2 2 C-1.34 2 -0.68 2 0 2 C0 1.34 0 0.68 0 0 Z " fill="#473062" transform="translate(263,353)"/>
<path d="M0 0 C0.66 0.33 1.32 0.66 2 1 C0.88321917 2.6721852 -0.24366352 4.33762803 -1.375 6 C-2.00148438 6.928125 -2.62796875 7.85625 -3.2734375 8.8125 C-3.84320313 9.534375 -4.41296875 10.25625 -5 11 C-5.66 11 -6.32 11 -7 11 C-7.25523437 11.56203125 -7.51046875 12.1240625 -7.7734375 12.703125 C-9.15692781 15.29386482 -10.79938583 17.45107845 -12.625 19.75 C-13.25664062 20.54921875 -13.88828125 21.3484375 -14.5390625 22.171875 C-15.02117187 22.77515625 -15.50328125 23.3784375 -16 24 C-16.33 23.01 -16.66 22.02 -17 21 C-16.34 21 -15.68 21 -15 21 C-14.7525 20.484375 -14.505 19.96875 -14.25 19.4375 C-9.49484536 10.16494845 -9.49484536 10.16494845 -6 9 C-5.29605388 7.68596724 -4.63654342 6.3479743 -4 5 C-2.6949419 3.31110128 -1.36639342 1.6396721 0 0 Z " fill="#785489" transform="translate(343,158)"/>
<path d="M0 0 C2.475 0.99 2.475 0.99 5 2 C4.25 6.75 4.25 6.75 2 9 C0 8.875 0 8.875 -2 8 C-3.25 5.9375 -3.25 5.9375 -4 4 C-2.68 2.68 -1.36 1.36 0 0 Z " fill="#B49061" transform="translate(292,41)"/>
<path d="M0 0 C-1.11152669 3.33458007 -1.83425675 3.88433075 -4.5 6 C-10.13442704 10.76837587 -16.62957223 16.88871668 -19 24 C-19.99 24.33 -20.98 24.66 -22 25 C-19.66705123 18.20879834 -7.8075756 0 0 0 Z " fill="#392451" transform="translate(52,106)"/>
<path d="M0 0 C-8.3194356 4.66987187 -18.73263096 4.2957671 -28 4 C-28 3.67 -28 3.34 -28 3 C-9.17995444 -0.44419134 -9.17995444 -0.44419134 0 0 Z " fill="#4A3258" transform="translate(121,82)"/>
<path d="M0 0 C0.66 0.66 1.32 1.32 2 2 C1.21625 2.9075 0.4325 3.815 -0.375 4.75 C-2.30052496 7.05190236 -3.82205741 9.21577207 -5 12 C-5.66 12 -6.32 12 -7 12 C-8.58969247 14.01791336 -8.58969247 14.01791336 -10.125 16.5 C-10.66382813 17.3353125 -11.20265625 18.170625 -11.7578125 19.03125 C-12.16773438 19.6809375 -12.57765625 20.330625 -13 21 C-13.79296875 19.37109375 -13.79296875 19.37109375 -14 17 C-12.50881626 14.82747379 -11.06605235 12.999873 -9.3125 11.0625 C-8.41238902 10.03287665 -7.5126453 9.0029321 -6.61328125 7.97265625 C-5.75089844 6.99167969 -4.88851563 6.01070312 -4 5 C-2.65653737 3.3414875 -1.3193449 1.67776178 0 0 Z " fill="#725188" transform="translate(311,181)"/>
<path d="M0 0 C3 3 3 3 3.14453125 4.97265625 C3.03496094 5.66230469 2.92539063 6.35195312 2.8125 7.0625 C2.71582031 7.75472656 2.61914062 8.44695312 2.51953125 9.16015625 C2 11 2 11 0 13 C-2.68839385 13.26991906 -5.29141936 13.08737357 -8 13 C-8 12.01 -8 11.02 -8 10 C-6.1875 8.9375 -6.1875 8.9375 -4 8 C-1 9 -1 9 0 10 C0 6.7 0 3.4 0 0 Z " fill="#79634A" transform="translate(210,126)"/>
<path d="M0 0 C0 0.66 0 1.32 0 2 C-6.35951142 5.40159913 -11.12496877 6.12967319 -18.3125 6.0625 C-19.56675781 6.05347656 -20.82101563 6.04445313 -22.11328125 6.03515625 C-23.06589844 6.02355469 -24.01851562 6.01195313 -25 6 C-25 5.67 -25 5.34 -25 5 C-24.01 4.89042969 -23.02 4.78085938 -22 4.66796875 C-14.85179833 3.8265781 -6.74370443 0 0 0 Z " fill="#6F5C44" transform="translate(216,76)"/>
<path d="M0 0 C5.70323584 1.62682465 10.68013903 4.33197987 15.875 7.125 C16.75414063 7.59292969 17.63328125 8.06085938 18.5390625 8.54296875 C20.69494271 9.6912093 22.84846777 10.84363903 25 12 C24.01 12.495 24.01 12.495 23 13 C14.97788343 10.00336634 7.04513587 5.88229506 0 1 C0 0.67 0 0.34 0 0 Z " fill="#7B5F90" transform="translate(84,238)"/>
<path d="M0 0 C0.7425 0.2475 1.485 0.495 2.25 0.75 C1.92 1.41 1.59 2.07 1.25 2.75 C-0.07 2.42 -1.39 2.09 -2.75 1.75 C-4.25930183 5.1363251 -4.25930183 5.1363251 -4.75 8.75 C-2.44 8.75 -0.13 8.75 2.25 8.75 C2.25 9.41 2.25 10.07 2.25 10.75 C-0.06 11.08 -2.37 11.41 -4.75 11.75 C-4.75 11.09 -4.75 10.43 -4.75 9.75 C-5.74 9.42 -6.73 9.09 -7.75 8.75 C-7.404156 5.63740396 -6.87620033 3.92127187 -5 1.375 C-2.75 -0.25 -2.75 -0.25 0 0 Z " fill="#B19771" transform="translate(294.75,126.25)"/>
<path d="M0 0 C0.69480469 0.28617187 1.38960938 0.57234375 2.10546875 0.8671875 C5.1464265 2.05730592 8.21132475 3.10263453 11.3125 4.125 C12.38113281 4.47820312 13.44976562 4.83140625 14.55078125 5.1953125 C15.35902344 5.46085937 16.16726563 5.72640625 17 6 C17 6.33 17 6.66 17 7 C10.89150586 7.37398944 6.35714422 7.1250008 1 4 C0.0625 1.8125 0.0625 1.8125 0 0 Z " fill="#816A40" transform="translate(277,73)"/>
<path d="M0 0 C3.9492568 0.55105909 7.34920174 1.38935371 11 3 C11 3.66 11 4.32 11 5 C13.64 5.66 16.28 6.32 19 7 C19 7.33 19 7.66 19 8 C12.94986984 7.47390172 7.38729945 5.8561551 2 3 C1.34 2.01 0.68 1.02 0 0 Z " fill="#3C345F" transform="translate(71,459)"/>
<path d="M0 0 C4.70507507 1.36520313 6.31271293 3.36091901 8.8125 7.5 C9.41707031 8.4796875 10.02164062 9.459375 10.64453125 10.46875 C12 13 12 13 12 15 C10.1875 14.9375 10.1875 14.9375 8 14 C6.375 10.625 6.375 10.625 5 7 C4.34 6.01 3.68 5.02 3 4 C2.01 4 1.02 4 0 4 C0 2.68 0 1.36 0 0 Z " fill="#433451" transform="translate(447,405)"/>
<path d="M0 0 C0.33 0.99 0.66 1.98 1 3 C1.66 3 2.32 3 3 3 C5.11161731 12.41002278 5.11161731 12.41002278 6 17 C3 16 3 16 2.0859375 14.36328125 C0.66597415 10.26723312 -0.58622495 6.34463798 -1 2 C-0.67 1.34 -0.34 0.68 0 0 Z " fill="#3B2E5F" transform="translate(17,394)"/>
<path d="M0 0 C0.66 0.33 1.32 0.66 2 1 C1.34 1.66 0.68 2.32 0 3 C-0.70710678 4.64991582 -1.37943989 6.31562256 -2 8 C-2.66 8 -3.32 8 -4 8 C-4.433125 8.7425 -4.86625 9.485 -5.3125 10.25 C-7.16677714 13.27178496 -9.15621943 14.92480878 -12 17 C-9.02373834 10.55143307 -4.67609334 5.2683985 0 0 Z " fill="#714F84" transform="translate(368,108)"/>
<path d="M0 0 C1.2065625 0.0309375 1.2065625 0.0309375 2.4375 0.0625 C2.4375 2.0425 2.4375 4.0225 2.4375 6.0625 C0.4575 6.3925 -1.5225 6.7225 -3.5625 7.0625 C-3.60504356 5.06295254 -3.60330783 3.06208364 -3.5625 1.0625 C-2.5625 0.0625 -2.5625 0.0625 0 0 Z " fill="#B4905B" transform="translate(206.5625,127.9375)"/>
<path d="M0 0 C1.65 0 3.3 0 5 0 C4.33501617 4.38889325 2.81242323 7.9811485 1 12 C-1.23551759 8.64672361 -1.17283528 8.09256343 -0.625 4.3125 C-0.51414063 3.50425781 -0.40328125 2.69601562 -0.2890625 1.86328125 C-0.19367188 1.24839844 -0.09828125 0.63351562 0 0 Z " fill="#432F5C" transform="translate(249,374)"/>
<path d="M0 0 C2.8125 0.875 2.8125 0.875 4.8125 1.875 C4.4825 2.535 4.1525 3.195 3.8125 3.875 C1.1725 3.545 -1.4675 3.215 -4.1875 2.875 C-4.47625 3.4525 -4.765 4.03 -5.0625 4.625 C-6.10416667 6.70833333 -7.14583333 8.79166667 -8.1875 10.875 C-8.65677699 6.83921785 -8.48608931 5.28775581 -6.0625 1.9375 C-3.1875 -0.125 -3.1875 -0.125 0 0 Z " fill="#6D5D42" transform="translate(294.1875,124.125)"/>
<path d="M0 0 C0.66 0 1.32 0 2 0 C2 2.64 2 5.28 2 8 C1.34 8 0.68 8 0 8 C0 8.66 0 9.32 0 10 C-6.93 10 -13.86 10 -21 10 C-21 9.67 -21 9.34 -21 9 C-20.43490723 8.98541748 -19.86981445 8.97083496 -19.28759766 8.95581055 C-16.73269981 8.88143942 -14.17912502 8.78474758 -11.625 8.6875 C-10.73554688 8.66494141 -9.84609375 8.64238281 -8.9296875 8.61914062 C-7.65351563 8.5659668 -7.65351563 8.5659668 -6.3515625 8.51171875 C-5.17327881 8.47244263 -5.17327881 8.47244263 -3.97119141 8.43237305 C-1.59959844 8.15110403 -1.59959844 8.15110403 0 5 C0.16713569 2.37468476 0.16713569 2.37468476 0 0 Z " fill="#6F4B81" transform="translate(165,85)"/>
<path d="M0 0 C0.66 0 1.32 0 2 0 C5.26643281 4.7975732 6.44389313 8.0881688 6.43359375 13.88671875 C5.89396214 16.51681515 4.72245745 17.97599827 3 20 C3.09539062 19.22914063 3.19078125 18.45828125 3.2890625 17.6640625 C3.39992188 16.66117187 3.51078125 15.65828125 3.625 14.625 C3.74101562 13.62726563 3.85703125 12.62953125 3.9765625 11.6015625 C3.98816406 10.31378906 3.98816406 10.31378906 4 9 C3.34 8.34 2.68 7.68 2 7 C1.67 7 1.34 7 1 7 C0.67 4.69 0.34 2.38 0 0 Z " fill="#5D4933" transform="translate(483,447)"/>
<path d="M0 0 C1.11375 0.4640625 1.11375 0.4640625 2.25 0.9375 C7.44702225 2.40998964 12.62487263 2.66949055 18 3 C18 3.66 18 4.32 18 5 C6.36143498 5.76681614 6.36143498 5.76681614 3.0234375 3.88671875 C1.6875 2.5 1.6875 2.5 0 0 Z " fill="#886C9B" transform="translate(245,257)"/>
<path d="M0 0 C0.66 0.33 1.32 0.66 2 1 C1.01 2.485 1.01 2.485 0 4 C-0.66 4 -1.32 4 -2 4 C-2.33 5.32 -2.66 6.64 -3 8 C-3.66 8 -4.32 8 -5 8 C-5.33 11.63 -5.66 15.26 -6 19 C-6.33 19 -6.66 19 -7 19 C-7.62583106 9.23008174 -7.62583106 9.23008174 -5.1875 4.4375 C-3 2 -3 2 0 0 Z " fill="#6F593D" transform="translate(467,445)"/>
<path d="M0 0 C0.99 0.33 1.98 0.66 3 1 C-1.95 5.95 -6.9 10.9 -12 16 C-12.66 15.67 -13.32 15.34 -14 15 C-13.28972656 14.30132812 -12.57945312 13.60265625 -11.84765625 12.8828125 C-10.92855469 11.97273438 -10.00945312 11.06265625 -9.0625 10.125 C-8.14597656 9.22007812 -7.22945312 8.31515625 -6.28515625 7.3828125 C-3.98812373 5.22317745 -3.98812373 5.22317745 -3 3 C-2.34 3 -1.68 3 -1 3 C-0.67 2.01 -0.34 1.02 0 0 Z " fill="#4E3E69" transform="translate(216,416)"/>
<path d="M0 0 C0 5.20706805 -1.06068598 8.91978888 -4.5 12.875 C-7 15 -7 15 -9 16 C-7.51637716 9.73581469 -3.75837844 5.08486495 0 0 Z " fill="#3F3154" transform="translate(30,302)"/>
<path d="M0 0 C0.680625 0.433125 1.36125 0.86625 2.0625 1.3125 C-0.20719744 3.58219744 -1.91145487 4.30381829 -4.9375 5.3125 C-6.2575 5.3125 -7.5775 5.3125 -8.9375 5.3125 C-9.2675 6.3025 -9.5975 7.2925 -9.9375 8.3125 C-10.5975 8.3125 -11.2575 8.3125 -11.9375 8.3125 C-10.63621793 4.40865379 -8.03848469 2.41037963 -4.7578125 0.15234375 C-2.9375 -0.6875 -2.9375 -0.6875 0 0 Z " fill="#4E355D" transform="translate(390.9375,84.6875)"/>
<path d="M0 0 C0.33 0.99 0.66 1.98 1 3 C-0.125 4.8125 -0.125 4.8125 -2 7 C-2.89653197 8.08275523 -3.79233677 9.16611289 -4.6875 10.25 C-5.450625 11.1575 -6.21375 12.065 -7 13 C-7.99 12.67 -8.98 12.34 -10 12 C-6.7 8.04 -3.4 4.08 0 0 Z " fill="#775D8C" transform="translate(309,272)"/>
<path d="M0 0 C0.66 0.33 1.32 0.66 2 1 C0.35 2.32 -1.3 3.64 -3 5 C-1.125 1.125 -1.125 1.125 0 0 Z M-6 5 C-5.01 5.33 -4.02 5.66 -3 6 C-5.31 8.97 -7.62 11.94 -10 15 C-10.33 14.34 -10.66 13.68 -11 13 C-10.2578125 11.30859375 -10.2578125 11.30859375 -9.125 9.4375 C-8.75632812 8.81746094 -8.38765625 8.19742188 -8.0078125 7.55859375 C-7 6 -7 6 -6 5 Z " fill="#7A578F" transform="translate(376,190)"/>
<path d="M0 0 C0.33 1.32 0.66 2.64 1 4 C0.38511719 3.91621094 -0.22976562 3.83242187 -0.86328125 3.74609375 C-1.67152344 3.64425781 -2.47976562 3.54242188 -3.3125 3.4375 C-4.11300781 3.33308594 -4.91351563 3.22867188 -5.73828125 3.12109375 C-8.16817116 2.85244822 -8.16817116 2.85244822 -11 4 C-8.36255031 -1.84006718 -6.04918208 -1.00819701 0 0 Z " fill="#4C3758" transform="translate(254,169)"/>
<path d="M0 0 C0.66 0 1.32 0 2 0 C1.72285156 1.09699219 1.44570313 2.19398437 1.16015625 3.32421875 C0.79420763 4.77862993 0.42832573 6.2330579 0.0625 7.6875 C-0.11990234 8.40873047 -0.30230469 9.12996094 -0.49023438 9.87304688 C-1.41825907 13.56827248 -2.29798461 17.25345469 -3 21 C-3.33 21 -3.66 21 -4 21 C-4.26793858 13.76565833 -4.11196775 6.16795162 0 0 Z " fill="#6C5A36" transform="translate(260,122)"/>
<path d="M0 0 C0.33 0.66 0.66 1.32 1 2 C-4.29889083 12.04962055 -4.29889083 12.04962055 -10 14 C-8.43632643 10.47761953 -6.30504111 7.72876006 -3.875 4.75 C-3.15054687 3.85796875 -2.42609375 2.9659375 -1.6796875 2.046875 C-0.84824219 1.03367187 -0.84824219 1.03367187 0 0 Z " fill="#442F58" transform="translate(359,117)"/>
<path d="M0 0 C0.99 0 1.98 0 3 0 C3.268125 0.969375 3.53625 1.93875 3.8125 2.9375 C4.204375 3.948125 4.59625 4.95875 5 6 C5.99 6.33 6.98 6.66 8 7 C9.1875 10.5625 9.1875 10.5625 10 14 C5.40783094 9.93265026 2.7832093 5.43614072 0 0 Z " fill="#312444" transform="translate(355,393)"/>
<path d="M0 0 C0.66 0.33 1.32 0.66 2 1 C-2.95 7.435 -2.95 7.435 -8 14 C-8.33 13.01 -8.66 12.02 -9 11 C-7.12890625 8.30078125 -7.12890625 8.30078125 -4.5625 5.3125 C-3.71816406 4.31863281 -2.87382812 3.32476562 -2.00390625 2.30078125 C-1.01197266 1.16189453 -1.01197266 1.16189453 0 0 Z " fill="#715187" transform="translate(285,214)"/>
<path d="M0 0 C0.99 0.33 1.98 0.66 3 1 C2.56429688 1.3403125 2.12859375 1.680625 1.6796875 2.03125 C-3.02431987 5.85961963 -6.55193463 10.02367123 -10 15 C-10.33 14.01 -10.66 13.02 -11 12 C-10.34 12 -9.68 12 -9 12 C-8.6596875 10.948125 -8.6596875 10.948125 -8.3125 9.875 C-6.50141965 5.90787162 -4.0021836 2.0010918 0 0 Z " fill="#78588B" transform="translate(391,98)"/>
<path d="M0 0 C0.66 0.33 1.32 0.66 2 1 C-1.63 4.63 -5.26 8.26 -9 12 C-9.66 11.67 -10.32 11.34 -11 11 C-9.54540569 9.35086118 -8.08620743 7.70578218 -6.625 6.0625 C-5.81289063 5.14597656 -5.00078125 4.22945313 -4.1640625 3.28515625 C-2 1 -2 1 0 0 Z " fill="#AB95B8" transform="translate(394,98)"/>
<path d="M0 0 C0.99 0.33 1.98 0.66 3 1 C3 1.66 3 2.32 3 3 C3.66 3 4.32 3 5 3 C5.69965443 4.26418246 6.38434763 5.53665402 7.0625 6.8125 C7.63677734 7.87404297 7.63677734 7.87404297 8.22265625 8.95703125 C9 11 9 11 8 14 C6.66101601 12.04532248 5.32870953 10.0866421 4 8.125 C3.2575 7.03445313 2.515 5.94390625 1.75 4.8203125 C0 2 0 2 0 0 Z " fill="#3F2D56" transform="translate(330,355)"/>
<path d="M0 0 C1.32 0 2.64 0 4 0 C3.54965877 1.62723299 3.08944646 3.25173664 2.625 4.875 C2.36976562 5.77992188 2.11453125 6.68484375 1.8515625 7.6171875 C1 10 1 10 -1 12 C-1.02712066 10.56260487 -1.04645067 9.12506137 -1.0625 7.6875 C-1.07410156 6.88699219 -1.08570312 6.08648437 -1.09765625 5.26171875 C-1 3 -1 3 0 0 Z " fill="#4F3561" transform="translate(82,131)"/>
<path d="M0 0 C1.65 0 3.3 0 5 0 C4.06862408 1.29608947 3.1296434 2.58671632 2.1875 3.875 C1.66542969 4.59429687 1.14335937 5.31359375 0.60546875 6.0546875 C-1 8 -1 8 -4 10 C-4.33 9.01 -4.66 8.02 -5 7 C-4.34 6.34 -3.68 5.68 -3 5 C-2.01 5 -1.02 5 0 5 C0 3.35 0 1.7 0 0 Z " fill="#32264A" transform="translate(222,426)"/>
<path d="M0 0 C0.62648438 0.185625 1.25296875 0.37125 1.8984375 0.5625 C0.78110021 2.06821657 -0.34566285 3.56694292 -1.4765625 5.0625 C-2.10304688 5.8978125 -2.72953125 6.733125 -3.375 7.59375 C-3.94476563 8.2434375 -4.51453125 8.893125 -5.1015625 9.5625 C-5.7615625 9.5625 -6.4215625 9.5625 -7.1015625 9.5625 C-4.52498592 -0.9420045 -4.52498592 -0.9420045 0 0 Z " fill="#452E57" transform="translate(386.1015625,196.4375)"/>
<path d="M0 0 C0 3 0 3 0 3 Z M-2 3 C-0.86327006 6.41018982 -1.14889871 7.16728404 -2.3125 10.4375 C-2.57675781 11.19933594 -2.84101562 11.96117187 -3.11328125 12.74609375 C-3.96253846 14.90477839 -4.92768395 16.94433735 -6 19 C-7.38012056 16.23975889 -6.59705421 15.03040064 -5.6875 12.125 C-5.42324219 11.26132813 -5.15898438 10.39765625 -4.88671875 9.5078125 C-4.07804679 7.22073145 -3.1387854 5.13833065 -2 3 Z " fill="#715087" transform="translate(74,122)"/>
<path d="M0 0 C0.66 0.33 1.32 0.66 2 1 C0.56877218 2.48523642 -0.87020889 3.96300462 -2.3125 5.4375 C-3.11300781 6.26121094 -3.91351563 7.08492188 -4.73828125 7.93359375 C-7 10 -7 10 -10 11 C-8.55218207 7.55571735 -6.72305391 5.63869038 -3.875 3.25 C-3.15054688 2.63640625 -2.42609375 2.0228125 -1.6796875 1.390625 C-0.84824219 0.70226562 -0.84824219 0.70226562 0 0 Z " fill="#6B4A7F" transform="translate(52,107)"/>
<path d="M0 0 C0 0.66 0 1.32 0 2 C-1.65 2.66 -3.3 3.32 -5 4 C-5 4.66 -5 5.32 -5 6 C-6.98 6.33 -8.96 6.66 -11 7 C-11 6.34 -11 5.68 -11 5 C-9.54462432 4.16151196 -8.08559627 3.32936066 -6.625 2.5 C-5.81289063 2.0359375 -5.00078125 1.571875 -4.1640625 1.09375 C-2 0 -2 0 0 0 Z " fill="#4C355A" transform="translate(66,97)"/>
<path d="M0 0 C0.66 0.33 1.32 0.66 2 1 C0.71034824 2.37562854 -0.62689293 3.70766393 -2 5 C-2.66 5 -3.32 5 -4 5 C-4.268125 5.598125 -4.53625 6.19625 -4.8125 6.8125 C-5.98493467 8.97224808 -7.19369282 10.35790256 -9 12 C-7.125 5.25 -7.125 5.25 -6 3 C-4.34795544 2.29788106 -2.68076231 1.63028587 -1 1 C-0.67 0.67 -0.34 0.34 0 0 Z " fill="#816547" transform="translate(273,106)"/>
<path d="M0 0 C0.99 0.33 1.98 0.66 3 1 C2.57847656 1.54269531 2.15695312 2.08539063 1.72265625 2.64453125 C1.17480469 3.35996094 0.62695312 4.07539062 0.0625 4.8125 C-0.48277344 5.52019531 -1.02804687 6.22789063 -1.58984375 6.95703125 C-3.16856248 9.04125052 -3.16856248 9.04125052 -4 12 C-6.0625 12.6875 -6.0625 12.6875 -8 13 C-6.59650387 9.96817583 -4.92228833 7.4482601 -2.875 4.8125 C-0.8826896 2.63639543 -0.8826896 2.63639543 0 0 Z " fill="#6A4A7D" transform="translate(459,99)"/>
<path d="M0 0 C0.99 0.33 1.98 0.66 3 1 C2.07456291 2.34173403 1.13422595 3.67320159 0.1875 5 C-0.33457031 5.7425 -0.85664063 6.485 -1.39453125 7.25 C-1.92433594 7.8275 -2.45414062 8.405 -3 9 C-3.99 9 -4.98 9 -6 9 C-4.47291037 5.56404834 -2.40072955 2.88087546 0 0 Z " fill="#735189" transform="translate(382,90)"/>
<path d="M0 0 C0.33 0 0.66 0 1 0 C1.25 7.625 1.25 7.625 -1 11 C-3.625 11.1875 -3.625 11.1875 -6 11 C-5.195625 10.113125 -4.39125 9.22625 -3.5625 8.3125 C-1.2960841 5.61712968 -0.31582634 3.57936522 0 0 Z " fill="#4B374F" transform="translate(462,424)"/>
<path d="M0 0 C0.33 0.99 0.66 1.98 1 3 C1.66 3 2.32 3 3 3 C4.1577506 6.47325181 4.06866652 9.36067448 4 13 C3.67 12.34 3.34 11.68 3 11 C2.34 11 1.68 11 1 11 C0.67 7.37 0.34 3.74 0 0 Z " fill="#382F58" transform="translate(11,376)"/>
<path d="M0 0 C3.7935068 -0.35288435 5.55941253 -0.28393415 8.8125 1.8125 C11 4 11 4 12 7 C7.69235185 5.43358249 3.93828536 3.31663844 0 1 C0 0.67 0 0.34 0 0 Z " fill="#7C6545" transform="translate(213,100)"/>
<path d="M0 0 C4.20763224 1.5027258 5.8027758 4.23332995 8 8 C8 8.66 8 9.32 8 10 C3.79236776 8.4972742 2.1972242 5.76667005 0 2 C0 1.34 0 0.68 0 0 Z " fill="#382C57" transform="translate(339,369)"/>
<path d="M0 0 C0.66 0 1.32 0 2 0 C0.43358249 4.30764815 -1.68336156 8.06171464 -4 12 C-5.33332095 9.3333581 -4.67102033 7.83319697 -4 5 C-3.34 5 -2.68 5 -2 5 C-2 4.01 -2 3.02 -2 2 C-1.34 2 -0.68 2 0 2 C0 1.34 0 0.68 0 0 Z " fill="#3D2956" transform="translate(263,353)"/>
<path d="M0 0 C0.66 0.33 1.32 0.66 2 1 C-0.31 3.64 -2.62 6.28 -5 9 C-5.99 8.67 -6.98 8.34 -8 8 C-7.67 7.34 -7.34 6.68 -7 6 C-6.34 6 -5.68 6 -5 6 C-5 5.34 -5 4.68 -5 4 C-3.37373596 2.61767557 -1.7074998 1.28062485 0 0 Z " fill="#6A5384" transform="translate(88,322)"/>
<path d="M0 0 C2.64 0 5.28 0 8 0 C8 0.66 8 1.32 8 2 C5.11788698 2.96070434 3.30149956 3.10581883 0.3125 3.0625 C-0.89986328 3.04896484 -0.89986328 3.04896484 -2.13671875 3.03515625 C-3.05904297 3.01775391 -3.05904297 3.01775391 -4 3 C-2.68 2.67 -1.36 2.34 0 2 C0 1.34 0 0.68 0 0 Z " fill="#382C59" transform="translate(152,468)"/>
<path d="M0 0 C3.63559661 3.43361902 6.36113346 6.7973607 9 11 C8.67 11.66 8.34 12.32 8 13 C7.34 12.67 6.68 12.34 6 12 C6 11.01 6 10.02 6 9 C5.34 9 4.68 9 4 9 C0 2.25 0 2.25 0 0 Z " fill="#332841" transform="translate(413,352)"/>
<path d="M0 0 C0.66 0.33 1.32 0.66 2 1 C-0.97 4.63 -3.94 8.26 -7 12 C-7 8.19654123 -5.86213669 7.22298985 -3.5 4.3125 C-2.8503125 3.50425781 -2.200625 2.69601563 -1.53125 1.86328125 C-1.0259375 1.24839844 -0.520625 0.63351563 0 0 Z " fill="#714F84" transform="translate(334,151)"/>
<path d="M0 0 C0.66 0.33 1.32 0.66 2 1 C-0.64 4.3 -3.28 7.6 -6 11 C-7.24546405 8.50907189 -6.7767578 7.58919267 -6 5 C-5.01 5 -4.02 5 -3 5 C-3 3.68 -3 2.36 -3 1 C-2.01 0.67 -1.02 0.34 0 0 Z " fill="#412A4F" transform="translate(434,135)"/>
<path d="M0 0 C0.33 1.32 0.66 2.64 1 4 C0.34 4 -0.32 4 -1 4 C-1 3.34 -1 2.68 -1 2 C-5.47883696 2.44703986 -5.47883696 2.44703986 -9 5 C-9 3.68 -9 2.36 -9 1 C-6.04335481 -0.4783226 -3.25770263 -0.06032783 0 0 Z " fill="#B1956E" transform="translate(253,27)"/>
<path d="M0 0 C0.66 0.66 1.32 1.32 2 2 C-0.57784846 4.64752004 -2.91648098 6.94432065 -6 9 C-4.47291037 5.56404834 -2.40072955 2.88087546 0 0 Z " fill="#B39470" transform="translate(260,101)"/>
<path d="M0 0 C3.2441189 1.04275251 4.60194664 2.61240491 6.3125 5.4375 C8 9 8 9 7 12 C5.83061933 10.18924982 4.66456267 8.37635257 3.5 6.5625 C2.8503125 5.55316406 2.200625 4.54382813 1.53125 3.50390625 C0 1 0 1 0 0 Z " fill="#362748" transform="translate(321,343)"/>
<path d="M0 0 C0.33 0.99 0.66 1.98 1 3 C-3.10526316 8.70175439 -3.10526316 8.70175439 -7 10 C-5.33248852 6.05860922 -2.77289351 3.2107188 0 0 Z " fill="#725B8A" transform="translate(283,304)"/>
<path d="M0 0 C0.66 0.33 1.32 0.66 2 1 C-0.64 4.63 -3.28 8.26 -6 12 C-6.33 11.34 -6.66 10.68 -7 10 C-5.84566363 7.01796439 -4.28169765 5.18662692 -2 3 C-1.34 2.01 -0.68 1.02 0 0 Z " fill="#7F6191" transform="translate(300,213)"/>
<path d="M0 0 C0.66 0 1.32 0 2 0 C0.59023295 3.03852705 -1.08870228 5.5939595 -3.125 8.25 C-3.66382813 8.95640625 -4.20265625 9.6628125 -4.7578125 10.390625 C-5.16773438 10.92171875 -5.57765625 11.4528125 -6 12 C-6.33 11.34 -6.66 10.68 -7 10 C-5.73885671 6.5605183 -3.59675024 4.5129841 -1 2 C-0.67 1.34 -0.34 0.68 0 0 Z " fill="#7A5C8C" transform="translate(356,141)"/>
<path d="M0 0 C0.33 0 0.66 0 1 0 C1 3.3 1 6.6 1 10 C0.01 10.495 0.01 10.495 -1 11 C-2.1875 9.4375 -2.1875 9.4375 -3 7 C-1.625 3.25 -1.625 3.25 0 0 Z " fill="#47325C" transform="translate(27,135)"/>
<path d="M0 0 C-0.61875 0.28875 -1.2375 0.5775 -1.875 0.875 C-4.13325765 1.93720042 -4.13325765 1.93720042 -6 4 C-9.125 4.125 -9.125 4.125 -12 4 C-8.35616205 0.00912986 -5.26350451 -0.11696677 0 0 Z " fill="#684A7C" transform="translate(93,88)"/>
<path d="M0 0 C0 0.66 0 1.32 0 2 C-3.72965139 4.03435531 -5.66905042 5 -10 5 C-10 4.34 -10 3.68 -10 3 C-8.70990357 2.49596232 -7.41786211 1.99690074 -6.125 1.5 C-5.04605469 1.08234375 -5.04605469 1.08234375 -3.9453125 0.65625 C-2 0 -2 0 0 0 Z " fill="#826A4D" transform="translate(216,76)"/>
<path d="M0 0 C3.25524265 3.02272532 5.61820737 6.25718301 8 10 C7.67 10.66 7.34 11.32 7 12 C4.04485124 9.24865461 1.8475191 6.60266225 0 3 C0 2.01 0 1.02 0 0 Z " fill="#30243F" transform="translate(442,394)"/>
<path d="M0 0 C0.99 0.33 1.98 0.66 3 1 C1.71937515 2.7074998 0.38232443 4.37373596 -1 6 C-1.66 6 -2.32 6 -3 6 C-3 6.66 -3 7.32 -3 8 C-3.66 8 -4.32 8 -5 8 C-4 6 -3 4 -2 2 C-1.34 2 -0.68 2 0 2 C0 1.34 0 0.68 0 0 Z " fill="#392E51" transform="translate(36,294)"/>
<path d="M0 0 C0.33 0.66 0.66 1.32 1 2 C0.07456291 3.34173403 -0.86577405 4.67320159 -1.8125 6 C-2.33457031 6.7425 -2.85664063 7.485 -3.39453125 8.25 C-3.92433594 8.8275 -4.45414062 9.405 -5 10 C-5.99 10 -6.98 10 -8 10 C-5.36 6.7 -2.72 3.4 0 0 Z " fill="#775E8A" transform="translate(292,293)"/>
<path d="M0 0 C0.66 0.33 1.32 0.66 2 1 C0.85793642 2.50287218 -0.28874957 4.00223284 -1.4375 5.5 C-2.39462891 6.75296875 -2.39462891 6.75296875 -3.37109375 8.03125 C-3.90863281 8.6809375 -4.44617188 9.330625 -5 10 C-5.33 10 -5.66 10 -6 10 C-6 8.35 -6 6.7 -6 5 C-5.34 5 -4.68 5 -4 5 C-3.896875 4.360625 -3.79375 3.72125 -3.6875 3.0625 C-3.460625 2.381875 -3.23375 1.70125 -3 1 C-2.01 0.67 -1.02 0.34 0 0 Z " fill="#432F52" transform="translate(371,215)"/>
<path d="M0 0 C1.32 0.33 2.64 0.66 4 1 C3.8125 3.3125 3.8125 3.3125 3 6 C0.4375 7.8125 0.4375 7.8125 -2 9 C-1.34 6.03 -0.68 3.06 0 0 Z " fill="#704C81" transform="translate(392,181)"/>
<path d="M0 0 C1.32 0.33 2.64 0.66 4 1 C2.02 3.31 0.04 5.62 -2 8 C-2.33 6.68 -2.66 5.36 -3 4 C-2.01 3.67 -1.02 3.34 0 3 C0 2.01 0 1.02 0 0 Z " fill="#442C59" transform="translate(406,168)"/>
<path d="M0 0 C0.66 0.33 1.32 0.66 2 1 C0.71372289 2.17260611 -0.57919783 3.3379283 -1.875 4.5 C-2.59429687 5.1496875 -3.31359375 5.799375 -4.0546875 6.46875 C-6 8 -6 8 -8 8 C-6.49776416 3.79373966 -3.71449966 2.26099979 0 0 Z " fill="#453764" transform="translate(197,435)"/>
<path d="M0 0 C2.475 0.99 2.475 0.99 5 2 C5 2.66 5 3.32 5 4 C5.99 4.33 6.98 4.66 8 5 C5 6 5 6 2.875 5.3125 C1 4 1 4 0.25 1.875 C0.1675 1.25625 0.085 0.6375 0 0 Z " fill="#937651" transform="translate(277,73)"/>
<path d="M0 0 C0 0.66 0 1.32 0 2 C0.66 2.33 1.32 2.66 2 3 C0.906875 2.979375 -0.18625 2.95875 -1.3125 2.9375 C-4.94384191 2.81455548 -4.94384191 2.81455548 -8 4 C-7.67 3.01 -7.34 2.02 -7 1 C-4.53721199 -0.231394 -2.7204945 -0.07159196 0 0 Z " fill="#786447" transform="translate(208,38)"/>
<path d="M0 0 C-0.66 0.66 -1.32 1.32 -2 2 C-4.8203125 1.9765625 -4.8203125 1.9765625 -8.125 1.625 C-9.22070312 1.51414062 -10.31640625 1.40328125 -11.4453125 1.2890625 C-12.28835938 1.19367188 -13.13140625 1.09828125 -14 1 C-14 0.67 -14 0.34 -14 0 C-9.02936879 -0.91297308 -4.97063121 -0.91297308 0 0 Z " fill="#332343" transform="translate(423,435)"/>
<path d="M0 0 C0.99 0 1.98 0 3 0 C3.99 2.97 4.98 5.94 6 9 C2.91910327 6.22719294 1.31224548 3.93673644 0 0 Z " fill="#30233F" transform="translate(365,407)"/>
<path d="M0 0 C0.66 0.33 1.32 0.66 2 1 C-0.475 5.455 -0.475 5.455 -3 10 C-4 8 -4 8 -3.1875 4.4375 C-2 1 -2 1 0 0 Z " fill="#362549" transform="translate(242,399)"/>
<path d="M0 0 C3.08089673 2.77280706 4.68775452 5.06326356 6 9 C3.5625 7.875 3.5625 7.875 1 6 C0.1875 2.8125 0.1875 2.8125 0 0 Z " fill="#3E3152" transform="translate(407,343)"/>
<path d="M0 0 C0.99 0.33 1.98 0.66 3 1 C2.62875 1.7425 2.2575 2.485 1.875 3.25 C0.70484137 5.94283647 0.70484137 5.94283647 1.875 8.3125 C2.431875 9.1478125 2.431875 9.1478125 3 10 C1.68 9.01 0.36 8.02 -1 7 C-0.67 4.69 -0.34 2.38 0 0 Z " fill="#3F2C51" transform="translate(344,246)"/>
<path d="M0 0 C0 3.32058331 -0.43061972 5.08543662 -2 8 C-4.625 9.3125 -4.625 9.3125 -7 10 C-5.33248852 6.05860922 -2.77289351 3.2107188 0 0 Z " fill="#452A51" transform="translate(292,203)"/>
<path d="M0 0 C0.66 0.33 1.32 0.66 2 1 C-0.31 4.3 -2.62 7.6 -5 11 C-5.33 9.68 -5.66 8.36 -6 7 C-4.78515625 5.078125 -4.78515625 5.078125 -3.0625 3.25 C-2.49660156 2.63640625 -1.93070312 2.0228125 -1.34765625 1.390625 C-0.90292969 0.93171875 -0.45820313 0.4728125 0 0 Z " fill="#7E5D8E" transform="translate(343,158)"/>
<path d="M0 0 C2.96052484 3.36423277 3.92289822 6.69159287 5 11 C1.125 9.25 1.125 9.25 0 7 C-0.04022391 4.6670134 -0.04320247 2.33293334 0 0 Z " fill="#735E42" transform="translate(242,141)"/>
<path d="M0 0 C-2.62198774 2.15377564 -4.64404172 3.40072174 -8 4 C-5.97675095 -0.48005146 -4.79569304 -1.43870791 0 0 Z " fill="#433663" transform="translate(187,445)"/>
<path d="M0 0 C0 0.99 0 1.98 0 3 C-1.98 3.99 -1.98 3.99 -4 5 C-4 5.99 -4 6.98 -4 8 C-4.66 8 -5.32 8 -6 8 C-5.6875 5.125 -5.6875 5.125 -5 2 C-2 0 -2 0 0 0 Z " fill="#402F60" transform="translate(222,428)"/>
<path d="M0 0 C0.99 0.33 1.98 0.66 3 1 C1.63016497 4.16115776 1.0109362 4.9927092 -2 7 C-1.125 2.25 -1.125 2.25 0 0 Z " fill="#503E6C" transform="translate(231,392)"/>
<path d="M0 0 C3.2542015 2.83430453 4.5206753 4.68607774 5 9 C4.01 8.67 3.02 8.34 2 8 C0.5522078 5.10441559 0 3.25811062 0 0 Z " fill="#3E2955" transform="translate(429,375)"/>
<path d="M0 0 C2.31 0 4.62 0 7 0 C7.66 1.32 8.32 2.64 9 4 C6.03 3.01 3.06 2.02 0 1 C0 0.67 0 0.34 0 0 Z " fill="#42325A" transform="translate(83,254)"/>
<path d="M0 0 C0.33 0.99 0.66 1.98 1 3 C-0.375 5.0625 -0.375 5.0625 -2 7 C-2.33 7.66 -2.66 8.32 -3 9 C-3.66 8.67 -4.32 8.34 -5 8 C-4.67 6.68 -4.34 5.36 -4 4 C-3.34 4 -2.68 4 -2 4 C-1.34 2.68 -0.68 1.36 0 0 Z " fill="#704B82" transform="translate(349,132)"/>
<path d="M0 0 C0.33 0.99 0.66 1.98 1 3 C-1.31 4.98 -3.62 6.96 -6 9 C-4.30794008 5.61588015 -2.67782733 2.67782733 0 0 Z " fill="#69477D" transform="translate(98,111)"/>
<path d="M0 0 C-6.4 3.07692308 -6.4 3.07692308 -9.4375 2.6875 C-9.953125 2.460625 -10.46875 2.23375 -11 2 C-3.57142857 -1.57142857 -3.57142857 -1.57142857 0 0 Z " fill="#433558" transform="translate(79,269)"/>
<path d="M0 0 C4.75 0.875 4.75 0.875 7 2 C7 2.66 7 3.32 7 4 C5.68 4.33 4.36 4.66 3 5 C2.01 3.35 1.02 1.7 0 0 Z " fill="#765A8A" transform="translate(109,251)"/>
<path d="M0 0 C0.33 0.99 0.66 1.98 1 3 C-0.65 4.65 -2.3 6.3 -4 8 C-4.66 7.67 -5.32 7.34 -6 7 C-4.02 4.69 -2.04 2.38 0 0 Z " fill="#7E6395" transform="translate(329,247)"/>
<path d="M0 0 C2.71224618 1.61268692 5.37352812 3.24901874 8 5 C7.67 5.66 7.34 6.32 7 7 C4.0625 5.75 4.0625 5.75 1 4 C0.125 1.8125 0.125 1.8125 0 0 Z " fill="#3F2F4E" transform="translate(209,244)"/>
<path d="M0 0 C0.66 0.33 1.32 0.66 2 1 C-0.97 4.96 -0.97 4.96 -4 9 C-4.33 8.01 -4.66 7.02 -5 6 C-4.34 5.67 -3.68 5.34 -3 5 C-1.9590934 3.35857037 -0.95495674 1.69287785 0 0 Z " fill="#7F5E8F" transform="translate(307,204)"/>
<path d="M0 0 C0.66 0 1.32 0 2 0 C1.67 1.65 1.34 3.3 1 5 C0.01 5.33 -0.98 5.66 -2 6 C-1.125 1.125 -1.125 1.125 0 0 Z " fill="#5C3A6B" transform="translate(295,199)"/>
<path d="M0 0 C2.97 0 5.94 0 9 0 C8.67 0.99 8.34 1.98 8 3 C5.6568787 2.74438677 3.32156597 2.40729228 1 2 C0.67 1.34 0.34 0.68 0 0 Z " fill="#B29570" transform="translate(245,148)"/>
<path d="M0 0 C0.66 0 1.32 0 2 0 C0.44499019 3.81684226 -2.03595495 6.19195732 -5 9 C-4.1875 6.0625 -4.1875 6.0625 -3 3 C-2.01 2.67 -1.02 2.34 0 2 C0 1.34 0 0.68 0 0 Z " fill="#7D5D90" transform="translate(371,122)"/>
<path d="M0 0 C0.66 0 1.32 0 2 0 C1.74438677 2.3431213 1.40729228 4.67843403 1 7 C0.01 7.495 0.01 7.495 -1 8 C-0.67 5.36 -0.34 2.72 0 0 Z " fill="#BC9F73" transform="translate(462,453)"/>
<path d="M0 0 C1.32 0.66 2.64 1.32 4 2 C2.02 2.99 0.04 3.98 -2 5 C-2.33 4.01 -2.66 3.02 -3 2 C-2.01 1.34 -1.02 0.68 0 0 Z " fill="#34294E" transform="translate(194,451)"/>
<path d="M0 0 C0.66 0 1.32 0 2 0 C4 3 4 3 3.625 5.1875 C3.41875 5.785625 3.2125 6.38375 3 7 C2.34 7 1.68 7 1 7 C0.67 4.69 0.34 2.38 0 0 Z " fill="#836C4C" transform="translate(483,447)"/>
<path d="M0 0 C1.9375 0.75 1.9375 0.75 4 2 C4.75 4.125 4.75 4.125 5 6 C4.01 6 3.02 6 2 6 C0 3 0 3 0 0 Z " fill="#342D5D" transform="translate(31,425)"/>
<path d="M0 0 C0.33 0.66 0.66 1.32 1 2 C-0.1875 4.5625 -0.1875 4.5625 -2 7 C-3.32 7.33 -4.64 7.66 -6 8 C-4.02 5.36 -2.04 2.72 0 0 Z " fill="#745F89" transform="translate(275,314)"/>
<path d="M0 0 C3.08089673 2.77280706 4.68775452 5.06326356 6 9 C5.01 8.34 4.02 7.68 3 7 C3 6.34 3 5.68 3 5 C2.01 4.67 1.02 4.34 0 4 C0 2.68 0 1.36 0 0 Z " fill="#392947" transform="translate(385,311)"/>
<path d="M0 0 C0.66 0.33 1.32 0.66 2 1 C1.25 3.4375 1.25 3.4375 0 6 C-2.125 6.8125 -2.125 6.8125 -4 7 C-2.92598892 4.08482708 -2.22189824 2.22189824 0 0 Z " fill="#6E4D83" transform="translate(317,173)"/>
<path d="M0 0 C-1.11666174 3.34998521 -1.74694925 3.79340222 -4.5625 5.6875 C-5.20316406 6.12449219 -5.84382813 6.56148438 -6.50390625 7.01171875 C-6.99761719 7.33785156 -7.49132813 7.66398437 -8 8 C-6.48291727 4.46014029 -4.24676932 0 0 0 Z " fill="#3C2D56" transform="translate(52,106)"/>
<path d="M0 0 C0.99 0.33 1.98 0.66 3 1 C3.6875 3.0625 3.6875 3.0625 4 5 C3.01 4.67 2.02 4.34 1 4 C0.01 4.66 -0.98 5.32 -2 6 C-1.34 4.02 -0.68 2.04 0 0 Z " fill="#AD885E" transform="translate(248,60)"/>
</svg>
